<svg width="16" height="14" viewBox="0 0 16 14" fill="none" xmlns="http://www.w3.org/2000/svg">
<path fill-rule="evenodd" clip-rule="evenodd" d="M9.57056 3.00121C9.71397 3.00121 9.83162 3.08395 9.92351 3.24989C10.0153 3.41562 10.0614 3.6322 10.0614 3.8992C10.0614 4.16665 10.0153 4.38211 9.92351 4.54534C9.83162 4.70902 9.71397 4.79085 9.57056 4.79085C9.41801 4.79085 9.29592 4.70902 9.20401 4.54534C9.11212 4.38211 9.06622 4.16665 9.06622 3.8992C9.06622 3.6322 9.11212 3.41562 9.20401 3.24989C9.29592 3.08395 9.41801 3.00121 9.57056 3.00121ZM4.92428 4.77006H5.54294V3.9408L4.92428 4.77006ZM12.993 4.77006H13.6116V3.9408L12.993 4.77006ZM16 10.9457V0H0V10.9457H3.4735V12.391H2.07686V14.0005H13.923V12.391H12.5263V10.9457H16ZM5.24837 7.56576H4.52007V8.65638H2.94777V7.56576L1.2307 7.63676V6.3637L3.44421 2.51785H4.52007V6.0707H5.24837V7.56576ZM10.1143 6.03114C10.004 6.35669 9.85084 6.63794 9.65502 6.87555C9.45911 7.11294 9.22748 7.29764 8.95991 7.42944C8.69224 7.5617 8.40132 7.62749 8.08684 7.62749C7.77236 7.62749 7.48123 7.5617 7.21377 7.42944C6.94609 7.29764 6.71436 7.11294 6.51866 6.87555C6.32273 6.63816 6.16961 6.35669 6.0593 6.03114C5.94886 5.70603 5.89381 5.34995 5.89381 4.96269C5.89381 4.57586 5.94886 4.21955 6.0593 3.89444C6.16961 3.5689 6.32273 3.28743 6.51866 3.05004C6.71436 2.81243 6.94609 2.6266 7.21377 2.49162C7.48123 2.35688 7.77236 2.28929 8.08684 2.28929C8.40132 2.28929 8.69224 2.35688 8.95991 2.49162C9.22736 2.6266 9.45911 2.81243 9.65502 3.05004C9.85084 3.28743 10.004 3.5689 10.1143 3.89444C10.2247 4.21955 10.2799 4.57586 10.2799 4.96269C10.2799 5.34973 10.2246 5.70603 10.1143 6.03114ZM10.7516 7.56576V6.0707L13.3749 2.51785H14.4507V6.0707L14.7692 6.3637V7.63676L14.4507 7.56576V8.65638H12.8784V7.56576H10.7516Z" fill="#AAAAAA"/>
</svg>
