<svg width="385" height="117" viewBox="0 0 385 117" fill="none" xmlns="http://www.w3.org/2000/svg">
<g filter="url(#filter0_d_3173_4023)">
<mask id="path-1-inside-1_3173_4023" fill="white">
<path fill-rule="evenodd" clip-rule="evenodd" d="M9.99736 96.0903C9.99736 96.0903 27.7055 102.259 52.6276 72.9593C52.6276 72.9593 63.7769 58.8605 77.769 91.6844C77.769 91.6844 86.0762 109.528 112.747 98.2932C112.747 98.2932 127.504 87.9396 138.981 93.8871C138.981 93.8871 148.928 104.903 161.936 94.9893C161.936 94.9893 177.786 64.6988 196.915 76.2641C196.915 76.2641 227.631 104.682 242.825 83.9746C242.825 83.9746 265.779 -80.6962 286.548 68.5533C286.548 68.5533 292.888 98.5136 301.851 88.3802C301.851 88.3802 311.361 73.5099 317.154 70.7564C317.154 70.7564 339.891 58.1996 373.995 59.7418"/>
</mask>
<path d="M52.6276 72.9593L54.9127 74.903L54.9475 74.8622L54.9807 74.8202L52.6276 72.9593ZM77.769 91.6844L75.0093 92.8609L75.0285 92.9061L75.0493 92.9506L77.769 91.6844ZM112.747 98.2932L113.912 101.058L114.208 100.933L114.47 100.749L112.747 98.2932ZM138.981 93.8871L141.208 91.8766L140.844 91.4734L140.362 91.2235L138.981 93.8871ZM161.936 94.9893L163.755 97.3753L164.285 96.971L164.595 96.3801L161.936 94.9893ZM196.915 76.2641L198.953 74.062L198.729 73.8548L198.467 73.6968L196.915 76.2641ZM242.825 83.9746L245.243 85.7493L245.691 85.1388L245.796 84.3888L242.825 83.9746ZM286.548 68.5533L283.577 68.9668L283.591 69.0712L283.613 69.1743L286.548 68.5533ZM301.851 88.3802L304.098 90.3678L304.253 90.1931L304.379 89.9965L301.851 88.3802ZM317.154 70.7564L318.442 73.4659L318.525 73.4267L318.605 73.3825L317.154 70.7564ZM9.99736 96.0903C9.01051 98.9233 9.01323 98.9242 9.01601 98.9252C9.01703 98.9256 9.01989 98.9266 9.02194 98.9273C9.02603 98.9287 9.0304 98.9302 9.03505 98.9317C9.04435 98.9349 9.05477 98.9384 9.0663 98.9422C9.08937 98.9499 9.1169 98.9588 9.14886 98.9689C9.21276 98.989 9.29435 99.0135 9.3933 99.0412C9.59121 99.0967 9.85861 99.1647 10.1928 99.2346C10.8614 99.3744 11.797 99.5217 12.9776 99.5911C15.3439 99.7302 18.6711 99.5548 22.7786 98.4001C31.0138 96.085 42.154 89.9027 54.9127 74.903L50.3424 71.0156C38.1791 85.3152 28.0042 90.6984 21.1548 92.624C17.72 93.5896 15.0625 93.7033 13.3297 93.6014C12.4608 93.5504 11.8182 93.4447 11.421 93.3616C11.2224 93.3201 11.085 93.2842 11.0113 93.2635C10.9745 93.2532 10.9536 93.2467 10.949 93.2453C10.9467 93.2445 10.9484 93.2451 10.9543 93.247C10.9572 93.248 10.9612 93.2493 10.9661 93.251C10.9686 93.2518 10.9714 93.2528 10.9744 93.2538C10.9759 93.2543 10.9784 93.2552 10.9791 93.2554C10.9816 93.2563 10.9842 93.2572 9.99736 96.0903ZM52.6276 72.9593C54.9807 74.8202 54.9792 74.8221 54.9777 74.824C54.9772 74.8246 54.9757 74.8264 54.9748 74.8276C54.973 74.8298 54.9714 74.8319 54.9699 74.8338C54.9669 74.8375 54.9645 74.8405 54.9627 74.8427C54.9591 74.8471 54.9579 74.8485 54.959 74.8471C54.9614 74.8443 54.973 74.8306 54.9936 74.8074C55.0352 74.761 55.1114 74.6787 55.22 74.5736C55.4403 74.3605 55.7752 74.0714 56.2055 73.7961C57.0644 73.2463 58.194 72.8132 59.5719 72.9888C62.3536 73.3434 68.0501 76.5354 75.0093 92.8609L80.5287 90.508C73.4958 74.0096 66.6216 67.839 60.3306 67.037C57.1721 66.6343 54.6399 67.6744 52.9711 68.7424C52.1375 69.2759 51.4921 69.8319 51.048 70.2616C50.8244 70.4779 50.6474 70.6665 50.5188 70.8105C50.4543 70.8827 50.4016 70.944 50.3609 70.9926C50.3406 71.0169 50.3232 71.038 50.3088 71.0557C50.3015 71.0646 50.2951 71.0726 50.2894 71.0797C50.2865 71.0833 50.2838 71.0866 50.2813 71.0898C50.2801 71.0913 50.2784 71.0935 50.2778 71.0943C50.2761 71.0964 50.2745 71.0984 52.6276 72.9593ZM77.769 91.6844C75.0493 92.9506 75.0502 92.9527 75.0512 92.9547C75.0516 92.9555 75.0526 92.9577 75.0533 92.9593C75.0548 92.9624 75.0564 92.9659 75.0582 92.9696C75.0617 92.977 75.0657 92.9855 75.0703 92.9951C75.0796 93.0143 75.091 93.0379 75.1047 93.0655C75.132 93.1208 75.1684 93.1926 75.2141 93.2796C75.3056 93.4534 75.4349 93.688 75.6047 93.9713C75.9439 94.5373 76.4478 95.3027 77.1394 96.1689C78.5203 97.8984 80.6732 100.058 83.7809 101.814C90.1396 105.406 99.8789 106.969 113.912 101.058L111.583 95.5284C98.9446 100.852 91.1948 99.1109 86.732 96.5898C84.429 95.2889 82.8382 93.6901 81.8281 92.4251C81.3241 91.7939 80.9706 91.2531 80.7513 90.8871C80.6419 90.7045 80.5666 90.5667 80.5234 90.4846C80.5018 90.4436 80.4883 90.4166 80.4826 90.4051C80.4797 90.3993 80.4788 90.3974 80.4799 90.3995C80.4804 90.4006 80.4814 90.4027 80.4828 90.4058C80.4836 90.4074 80.4844 90.4092 80.4854 90.4113C80.4859 90.4123 80.4867 90.414 80.4869 90.4146C80.4878 90.4164 80.4887 90.4183 77.769 91.6844ZM112.747 98.2932C114.47 100.749 114.47 100.749 114.469 100.75C114.469 100.75 114.468 100.75 114.468 100.751C114.467 100.751 114.467 100.751 114.467 100.751C114.467 100.752 114.467 100.751 114.469 100.75C114.472 100.748 114.478 100.744 114.488 100.737C114.508 100.723 114.541 100.701 114.587 100.67C114.68 100.608 114.824 100.512 115.016 100.39C115.401 100.144 115.974 99.7924 116.702 99.384C118.162 98.5638 120.211 97.5342 122.577 96.6824C127.427 94.9359 132.979 94.1556 137.601 96.5507L140.362 91.2235C133.506 87.6712 125.941 89.0939 120.544 91.0372C117.786 92.0304 115.429 93.2174 113.763 94.1527C112.928 94.622 112.258 95.0324 111.791 95.3301C111.558 95.4791 111.374 95.6003 111.245 95.6869C111.18 95.7303 111.129 95.765 111.092 95.7904C111.074 95.803 111.059 95.8133 111.047 95.8212C111.042 95.8251 111.037 95.8285 111.033 95.8311C111.031 95.8325 111.03 95.8337 111.028 95.8347C111.027 95.8352 111.026 95.8359 111.026 95.8361C111.025 95.8368 111.024 95.8373 112.747 98.2932ZM138.981 93.8871C136.755 95.8977 136.756 95.8989 136.757 95.9002C136.757 95.9007 136.759 95.902 136.76 95.903C136.761 95.9049 136.763 95.907 136.765 95.9093C136.769 95.9138 136.774 95.9191 136.78 95.9249C136.79 95.9367 136.804 95.9511 136.82 95.968C136.851 96.0019 136.893 96.0458 136.944 96.0988C137.047 96.2048 137.19 96.3475 137.371 96.5186C137.731 96.8601 138.247 97.3188 138.904 97.8271C140.211 98.8374 142.128 100.081 144.544 100.971C149.536 102.81 156.367 103.006 163.755 97.3753L160.118 92.6032C154.498 96.8865 149.851 96.5315 146.618 95.3407C144.921 94.7159 143.538 93.8251 142.573 93.0798C142.095 92.7103 141.732 92.3858 141.498 92.1636C141.381 92.0529 141.297 91.9685 141.248 91.918C141.223 91.8928 141.208 91.8761 141.201 91.8688C141.198 91.8652 141.196 91.864 141.198 91.8652C141.198 91.8658 141.199 91.8671 141.201 91.869C141.202 91.8699 141.203 91.871 141.204 91.8723C141.205 91.8729 141.206 91.874 141.206 91.8743C141.207 91.8754 141.208 91.8766 138.981 93.8871ZM161.936 94.9893C164.595 96.3801 164.594 96.3809 164.594 96.3815C164.594 96.3815 164.594 96.382 164.594 96.3821C164.593 96.3824 164.594 96.3821 164.594 96.3814C164.595 96.3801 164.596 96.3769 164.599 96.372C164.604 96.3621 164.613 96.3452 164.626 96.3215C164.651 96.2741 164.692 96.1997 164.746 96.1003C164.856 95.9016 165.023 95.6036 165.245 95.2238C165.689 94.4634 166.35 93.3792 167.203 92.109C168.917 89.555 171.363 86.3153 174.335 83.4492C177.328 80.5624 180.69 78.2165 184.217 77.1917C187.622 76.2023 191.328 76.392 195.363 78.8314L198.467 73.6968C192.938 70.3536 187.49 69.9926 182.543 71.4299C177.718 72.8318 173.53 75.89 170.17 79.1302C166.789 82.391 164.076 86.0011 162.221 88.7651C161.289 90.154 160.562 91.3458 160.065 92.1968C159.816 92.6226 159.624 92.9641 159.492 93.2035C159.426 93.3232 159.375 93.4174 159.339 93.4839C159.321 93.5172 159.307 93.5435 159.297 93.5627C159.292 93.5723 159.288 93.5801 159.285 93.586C159.283 93.589 159.282 93.5915 159.281 93.5936C159.28 93.5946 159.28 93.5958 159.279 93.5963C159.279 93.5974 159.278 93.5984 161.936 94.9893ZM196.915 76.2641C194.878 78.4662 194.879 78.4669 194.88 78.4677C194.88 78.4681 194.881 78.4691 194.882 78.4699C194.884 78.4716 194.886 78.4737 194.889 78.4762C194.894 78.4813 194.902 78.4881 194.911 78.4965C194.929 78.5134 194.955 78.537 194.988 78.567C195.054 78.627 195.149 78.7126 195.272 78.8213C195.517 79.0388 195.872 79.3494 196.326 79.7338C197.233 80.5022 198.538 81.5689 200.151 82.7798C203.362 85.1912 207.855 88.2231 212.893 90.5982C217.894 92.9563 223.676 94.7845 229.389 94.5022C235.263 94.212 240.885 91.6899 245.243 85.7493L240.406 82.1999C237.168 86.6132 233.252 88.3041 229.093 88.5095C224.774 88.7229 220.029 87.3292 215.452 85.1712C210.911 83.0303 206.776 80.2519 203.753 77.982C202.249 76.8522 201.036 75.8605 200.204 75.1557C199.788 74.8035 199.468 74.5238 199.256 74.3351C199.15 74.2408 199.07 74.1693 199.019 74.123C198.994 74.0998 198.975 74.083 198.964 74.0727C198.959 74.0676 198.955 74.0641 198.953 74.0623C198.952 74.0614 198.951 74.0609 198.951 74.0609C198.951 74.0609 198.952 74.0612 198.952 74.0611C198.952 74.0615 198.953 74.062 196.915 76.2641ZM242.825 83.9746C245.796 84.3888 245.796 84.3885 245.796 84.3876C245.796 84.3865 245.797 84.385 245.797 84.3827C245.797 84.3782 245.798 84.3712 245.8 84.3618C245.802 84.3429 245.806 84.3142 245.812 84.2759C245.823 84.1993 245.839 84.0844 245.861 83.933C245.904 83.6302 245.969 83.1814 246.055 82.6012C246.227 81.4407 246.482 79.7549 246.815 77.6606C247.479 73.4708 248.452 67.6513 249.684 61.1338C252.157 48.0433 255.638 32.338 259.712 21.337C261.787 15.7314 263.851 11.8245 265.709 9.96494C266.604 9.06974 267.105 8.99653 267.237 8.99509C267.314 8.99426 267.809 9.0038 268.74 10.0221C270.737 12.2072 273.195 17.3662 275.808 27.1399C278.379 36.7518 280.989 50.3671 283.577 68.9668L289.52 68.1398C286.916 49.4271 284.265 35.54 281.605 25.59C278.988 15.8019 276.245 9.33952 273.169 5.97434C271.563 4.21748 269.555 2.96962 267.172 2.99545C264.844 3.02067 262.929 4.25819 261.465 5.7241C258.605 8.58672 256.177 13.6036 254.085 19.2537C249.823 30.7643 246.267 46.8986 243.788 60.0198C242.543 66.6082 241.56 72.4875 240.889 76.7203C240.553 78.8371 240.294 80.5435 240.12 81.7223C240.033 82.3117 239.966 82.7693 239.922 83.0806C239.899 83.2362 239.882 83.3552 239.871 83.4358C239.865 83.4761 239.861 83.5067 239.858 83.5276C239.857 83.538 239.855 83.546 239.855 83.5515C239.854 83.5542 239.854 83.5564 239.854 83.5578C239.854 83.5594 239.853 83.5604 242.825 83.9746ZM286.548 68.5533C283.613 69.1743 283.613 69.1749 283.614 69.1757C283.614 69.1761 283.614 69.1769 283.614 69.1777C283.614 69.1793 283.615 69.1814 283.615 69.1839C283.616 69.1889 283.618 69.1957 283.62 69.2043C283.623 69.2214 283.629 69.2457 283.635 69.2768C283.649 69.339 283.669 69.4285 283.694 69.5433C283.746 69.7727 283.821 70.1032 283.92 70.5175C284.118 71.3454 284.409 72.5115 284.788 73.8773C285.54 76.5908 286.655 80.1691 288.087 83.4627C289.454 86.6069 291.343 90.0659 293.885 91.9618C295.254 92.9831 297.021 93.703 299.054 93.4062C301.03 93.1176 302.702 91.9458 304.098 90.3678L299.604 86.3926C298.759 87.348 298.272 87.4566 298.187 87.4691C298.157 87.4735 297.959 87.5153 297.473 87.1527C296.304 86.2811 294.928 84.15 293.59 81.0708C292.316 78.1411 291.287 74.8626 290.57 72.2752C290.214 70.9905 289.94 69.8952 289.756 69.1242C289.664 68.739 289.595 68.4357 289.549 68.2312C289.526 68.129 289.509 68.0516 289.498 68.001C289.493 67.9757 289.489 67.9572 289.486 67.9456C289.485 67.9398 289.484 67.9358 289.484 67.9336C289.483 67.9325 289.483 67.9318 289.483 67.9315C289.483 67.9314 289.483 67.9316 289.483 67.9315C289.483 67.9318 289.483 67.9322 286.548 68.5533ZM301.851 88.3802C304.379 89.9965 304.378 89.9967 304.378 89.9968C304.378 89.9968 304.378 89.9969 304.378 89.9968C304.378 89.9967 304.379 89.9963 304.379 89.9958C304.38 89.9946 304.381 89.9925 304.383 89.9896C304.387 89.9837 304.393 89.9744 304.401 89.9616C304.417 89.9361 304.443 89.8969 304.476 89.8449C304.544 89.7409 304.645 89.5858 304.776 89.386C305.04 88.9865 305.424 88.4091 305.905 87.7063C306.867 86.2983 308.205 84.3987 309.715 82.4216C311.23 80.4367 312.887 78.4162 314.486 76.7469C316.148 75.0113 317.515 73.9067 318.442 73.4659L315.867 68.0469C313.897 68.9829 311.903 70.7695 310.153 72.5966C308.339 74.4898 306.532 76.7032 304.946 78.7801C303.354 80.8647 301.953 82.8548 300.951 84.321C300.449 85.0554 300.045 85.6613 299.766 86.0857C299.626 86.2979 299.517 86.465 299.442 86.5802C299.405 86.6378 299.376 86.6824 299.356 86.7133C299.346 86.7288 299.339 86.7408 299.333 86.7492C299.331 86.7534 299.328 86.7568 299.327 86.7592C299.326 86.7605 299.325 86.7615 299.325 86.7622C299.325 86.7626 299.324 86.763 299.324 86.7632C299.324 86.7636 299.324 86.7639 301.851 88.3802ZM317.154 70.7564C318.605 73.3825 318.604 73.383 318.603 73.3834C318.603 73.3834 318.603 73.3838 318.602 73.3839C318.602 73.3842 318.602 73.3842 318.602 73.3841C318.602 73.3839 318.604 73.3829 318.607 73.3812C318.613 73.3778 318.625 73.3714 318.642 73.3622C318.677 73.3437 318.733 73.3138 318.81 73.2732C318.965 73.1922 319.205 73.0686 319.528 72.9091C320.173 72.59 321.148 72.127 322.431 71.5717C324.998 70.4609 328.792 68.9825 333.638 67.5472C343.331 64.6759 357.204 61.9856 373.859 62.7387L374.131 56.7448C356.682 55.9558 342.134 58.7728 331.934 61.7943C326.832 63.3055 322.811 64.8699 320.048 66.0653C318.667 66.6631 317.6 67.1691 316.868 67.5306C316.503 67.7114 316.221 67.8562 316.026 67.9583C315.929 68.0093 315.853 68.0497 315.799 68.0787C315.772 68.0931 315.751 68.1048 315.735 68.1134C315.727 68.1177 315.72 68.1213 315.715 68.1241C315.713 68.1255 315.711 68.1267 315.709 68.1278C315.708 68.1283 315.707 68.1289 315.706 68.1292C315.705 68.1297 315.704 68.1303 317.154 70.7564Z" fill="white" mask="url(#path-1-inside-1_3173_4023)"/>
</g>
<defs>
<filter id="filter0_d_3173_4023" x="0.798047" y="0.895117" width="383.996" height="116.011" filterUnits="userSpaceOnUse" color-interpolation-filters="sRGB">
<feFlood flood-opacity="0" result="BackgroundImageFix"/>
<feColorMatrix in="SourceAlpha" type="matrix" values="0 0 0 0 0 0 0 0 0 0 0 0 0 0 0 0 0 0 127 0" result="hardAlpha"/>
<feOffset dx="0.8" dy="4.9"/>
<feGaussianBlur stdDeviation="5"/>
<feColorMatrix type="matrix" values="0 0 0 0 0.788235 0 0 0 0 0.796078 0 0 0 0 0.815686 0 0 0 1 0"/>
<feBlend mode="normal" in2="BackgroundImageFix" result="effect1_dropShadow_3173_4023"/>
<feBlend mode="normal" in="SourceGraphic" in2="effect1_dropShadow_3173_4023" result="shape"/>
</filter>
</defs>
</svg>
