<svg width="16" height="16" viewBox="0 0 16 16" fill="none" xmlns="http://www.w3.org/2000/svg">
<path fill-rule="evenodd" clip-rule="evenodd" d="M11.9998 1.9999V0H9.99985V1.9999H5.99979V0H3.99983V1.9999H-0.00011313V4.00005H15.9999V1.9999H11.9998ZM-0.00195312 15.9981H16.0014L15.9999 5.99972H-0.00011313L-0.00195312 15.9981ZM9.99985 8.00008H12.9998V9.99998H9.99985V8.00008ZM9.99985 11.9999H12.9998V14H9.99985V11.9999ZM6.99979 8.00008H8.99987V9.99998H6.99979V8.00008ZM6.99979 11.9999H8.99987V14H6.99979V11.9999ZM2.99985 8.00008H5.99979V9.99998H2.99985V8.00008ZM2.99985 11.9999H5.99979V14H2.99985V11.9999Z" fill="#AAAAAA"/>
</svg>
