<svg width="9" height="14" viewBox="0 0 9 14" fill="none" xmlns="http://www.w3.org/2000/svg">
<path d="M0 1.65625H1.34375V0.34375H2.65625V1.65625H4V0.34375H5.34375V1.6875C6.11458 1.79167 6.73958 2.11458 7.21875 2.65625C7.71875 3.19792 7.97917 3.86458 8 4.65625C8 5.09375 7.91667 5.51042 7.75 5.90625C7.58333 6.28125 7.34375 6.60417 7.03125 6.875C7.42708 7.14583 7.73958 7.5 7.96875 7.9375C8.19792 8.35417 8.32292 8.82292 8.34375 9.34375C8.32292 10.1979 8.03125 10.9062 7.46875 11.4688C6.90625 12.0312 6.19792 12.3229 5.34375 12.3438V13.6562H4V12.3438H2.65625V13.6562H1.34375V12.3438H0L0.34375 11H1.34375V3H0V1.65625ZM2.65625 7.65625V11H5.34375C5.80208 10.9792 6.1875 10.8125 6.5 10.5C6.8125 10.1875 6.96875 9.80208 6.96875 9.34375C6.96875 8.86458 6.8125 8.46875 6.5 8.15625C6.1875 7.84375 5.80208 7.67708 5.34375 7.65625H2.65625ZM2.65625 3V6.34375H5C5.47917 6.32292 5.875 6.15625 6.1875 5.84375C6.5 5.53125 6.65625 5.14583 6.65625 4.6875C6.65625 4.20833 6.5 3.8125 6.1875 3.5C5.875 3.1875 5.47917 3.02083 5 3H2.65625Z" fill="#7F63F4"/>
</svg>
