<svg width="16" height="17" viewBox="0 0 16 17" fill="none" xmlns="http://www.w3.org/2000/svg">
<path fill-rule="evenodd" clip-rule="evenodd" d="M5.37733 5.15446C5.26345 5.23155 5.11697 5.23857 4.99623 5.17323C4.87551 5.10744 4.80009 4.97993 4.80009 4.84066V2.28777C4.80009 2.16183 4.86211 2.04405 4.96545 1.97418L7.79329 0.0595032C7.91803 -0.0250427 8.08053 -0.0250427 8.20517 0.0595032L11.033 1.97441C11.1363 2.04428 11.1984 2.16207 11.1984 2.28777V4.84066C11.1984 4.9797 11.1229 5.10744 11.0023 5.17323C10.8815 5.23857 10.735 5.23178 10.6211 5.15446L9.31317 4.26912V9.62702C9.31317 10.3629 8.72381 10.9613 7.99929 10.9613C7.27475 10.9613 6.68527 10.3629 6.68527 9.62702V4.26912L5.37733 5.15446ZM14.4841 4.10251C15.4799 5.49653 16.0062 7.14599 16.0062 8.87213C16.0062 13.3562 12.4143 17.004 7.99929 17.004C3.58415 17.004 -0.0078125 13.3562 -0.0078125 8.87213C-0.0078125 7.14599 0.518507 5.49653 1.51437 4.10251C1.62859 3.94268 1.84443 3.89927 2.00991 4.0028L4.10153 5.31228C4.18943 5.36742 4.25089 5.45697 4.27091 5.56005C4.29105 5.66291 4.26793 5.76984 4.20717 5.85464C3.62513 6.66965 3.31739 7.63389 3.31739 8.64357C3.31739 11.2652 5.41773 13.3983 7.99929 13.3983C10.5808 13.3983 12.6812 11.2652 12.6812 8.64357C12.6812 7.63389 12.3734 6.66965 11.7914 5.85464C11.7307 5.76984 11.7077 5.66291 11.7276 5.56005C11.7477 5.45697 11.8091 5.36742 11.8971 5.31228L13.9887 4.0028C14.154 3.89927 14.37 3.94268 14.4841 4.10251Z" fill="#AAAAAA"/>
</svg>
