<svg width="14" height="14" viewBox="0 0 14 14" fill="none" xmlns="http://www.w3.org/2000/svg">
<path fill-rule="evenodd" clip-rule="evenodd" d="M13.4672 13.034L10.2016 9.76786C11.0776 8.76067 11.608 7.44648 11.608 6.0101C11.608 2.84824 9.0365 0.279297 5.87828 0.279297C2.71695 0.279297 0.148438 2.85125 0.148438 6.0101C0.148438 9.16893 2.71993 11.7407 5.87828 11.7407C7.31439 11.7407 8.62841 11.2103 9.63548 10.334L12.9011 13.6003C12.9785 13.6776 13.0828 13.7193 13.1842 13.7193C13.2855 13.7193 13.3897 13.6806 13.4672 13.6003C13.6221 13.4453 13.6221 13.189 13.4672 13.034ZM0.950101 6.0101C0.950101 3.29232 3.16087 1.08395 5.87519 1.08395C8.59269 1.08395 10.8005 3.29535 10.8005 6.0101C10.8005 8.72501 8.59269 10.9391 5.87519 10.9391C3.16087 10.9391 0.950101 8.72786 0.950101 6.0101Z" fill="#AAAAAA"/>
</svg>
