<svg width="16" height="16" viewBox="0 0 16 16" fill="none" xmlns="http://www.w3.org/2000/svg">
<path fill-rule="evenodd" clip-rule="evenodd" d="M15.1817 0.0975167C15.5544 0.14363 15.8482 0.437085 15.894 0.809656C15.8994 0.85442 16.0278 1.91542 15.9934 3.15298C15.9427 4.97362 15.5814 6.19536 14.8889 6.88783L14.0892 7.68748L12.7954 8.98135L9.7511 12.0251L8.90962 12.8663L7.75228 14.0236L7.17378 13.4448L5.43782 11.7092L6.59506 10.5522L11.4171 5.73075L11.4178 5.73009C11.4249 5.72307 11.4314 5.71561 11.4382 5.70837C11.4419 5.70447 11.4456 5.70051 11.4493 5.69655C11.452 5.69361 11.4547 5.69068 11.4573 5.68779C11.4608 5.68381 11.4641 5.67958 11.4674 5.67541C11.4695 5.67271 11.4716 5.67003 11.4737 5.66746C11.4802 5.65954 11.4869 5.65141 11.493 5.64348C11.4957 5.64 11.4982 5.63628 11.5007 5.63259C11.5024 5.63007 11.5041 5.62756 11.5058 5.62517C11.5069 5.62369 11.5079 5.62222 11.509 5.62075C11.5146 5.61301 11.5201 5.60535 11.5253 5.59737C11.5276 5.59371 11.5298 5.58995 11.532 5.58621C11.5333 5.58396 11.5346 5.58172 11.5359 5.57951C11.5421 5.56978 11.5484 5.55985 11.5539 5.54966C11.557 5.54403 11.5599 5.5383 11.5627 5.53266C11.5643 5.52947 11.5659 5.52631 11.5675 5.52321C11.569 5.52031 11.5705 5.51747 11.572 5.51465C11.5744 5.51 11.5769 5.50539 11.5791 5.5006C11.5846 5.48907 11.5894 5.4771 11.5943 5.46534C11.5964 5.46036 11.5988 5.45538 11.6007 5.45042C11.667 5.28041 11.6744 5.09298 11.6229 4.91936C11.6216 4.91506 11.6198 4.91077 11.6184 4.90647C11.6119 4.88567 11.6049 4.86486 11.5967 4.84429C11.5952 4.8406 11.5934 4.83702 11.5917 4.83341C11.5899 4.82973 11.5881 4.82602 11.5865 4.82213C11.5855 4.81985 11.5845 4.81757 11.5835 4.81528C11.577 4.80062 11.5705 4.786 11.5629 4.77173C11.5606 4.76734 11.558 4.76311 11.5554 4.75885C11.5536 4.75587 11.5518 4.75287 11.55 4.7498C11.5484 4.74702 11.5468 4.74423 11.5452 4.74143C11.5378 4.72829 11.5303 4.71499 11.5219 4.70232C11.5145 4.69106 11.5063 4.68036 11.4981 4.66979C11.4959 4.66698 11.4938 4.66419 11.4916 4.66139C11.4895 4.65846 11.4874 4.65552 11.4854 4.65261C11.4814 4.64699 11.4775 4.64143 11.4731 4.63607C11.4556 4.61437 11.4369 4.59379 11.4169 4.5739C11.0974 4.25422 10.5792 4.25422 10.2597 4.57367V4.5739L4.28038 10.5522L2.5451 8.81721L2.54442 8.81652L1.9657 8.23776L3.12304 7.08091L7.00876 3.19571L8.30274 1.90208H8.30286L9.10246 1.10245C9.79516 0.409953 11.0169 0.0488955 12.838 -0.00196737C14.0757 -0.0363384 15.137 0.0918548 15.1817 0.0975167ZM4.47332 1.10245C4.69248 0.883357 5.01658 0.806958 5.31068 0.904846L6.56668 1.32332L0.808462 7.08068L0.229962 6.50236C-0.0896581 6.18268 -0.0896582 5.66474 0.229862 5.3453L4.47332 1.10245ZM2.54442 11.1307L4.85898 13.4448C5.1785 13.7645 5.1785 14.2827 4.85898 14.6019C4.53946 14.9216 4.02128 14.9216 3.70176 14.6019L1.3872 12.288C1.06768 11.9683 1.06768 11.4501 1.3872 11.1307C1.70682 10.8112 2.2249 10.8112 2.54442 11.1307ZM15.0865 10.6792L14.6677 9.42332L8.90962 15.1807L9.48824 15.7592C9.6417 15.9127 9.84976 15.9989 10.0668 15.9989C10.2839 15.9989 10.492 15.9127 10.6453 15.7592L14.8887 11.5166C15.108 11.2973 15.1844 10.9731 15.0865 10.6792Z" fill="#AAAAAA"/>
</svg>
