<svg width="16" height="16" viewBox="0 0 16 16" fill="none" xmlns="http://www.w3.org/2000/svg">
<path fill-rule="evenodd" clip-rule="evenodd" d="M16.0014 2.09177C16.0014 0.935587 15.0641 -0.00195312 13.9078 -0.00195312H2.09165C0.935447 -0.00195312 -0.00195312 0.935587 -0.00195312 2.09177V13.9079C-0.00195312 15.064 0.935447 16.0016 2.09165 16.0016H13.9078C15.0641 16.0016 16.0014 15.064 16.0014 13.9079V2.09177ZM7.95673 3.71029C9.08479 3.71029 9.99927 4.62455 9.99927 5.75247C9.99927 6.88061 9.08479 7.79533 7.95673 7.79533C6.82857 7.79533 5.91419 6.88061 5.91419 5.75247C5.91419 4.62455 6.82857 3.71029 7.95673 3.71029ZM11.2649 13.1622H4.79187C4.17481 13.1622 3.67459 12.6554 3.67459 12.0384C3.67459 10.2747 4.76167 8.75979 6.30203 8.13693C6.77159 8.46339 7.34161 8.65533 7.95685 8.65533C8.59463 8.65533 9.18377 8.44937 9.66271 8.10031C11.2517 8.69965 12.3824 10.2397 12.3824 12.0384C12.3824 12.6554 11.8821 13.1622 11.2649 13.1622Z" fill="#AAAAAA"/>
</svg>
