<svg width="9" height="15" viewBox="0 0 9 15" fill="#000" xmlns="http://www.w3.org/2000/svg">
<path d="M5.27819 14.872V13.208C7.31019 12.968 8.36619 11.592 8.36619 10.168C8.36619 8.728 7.29419 7.544 5.51819 7.192L5.27819 7.144V3.864C6.25419 4.136 6.73419 4.968 6.83019 5.576L8.27019 5.048C8.01419 4.008 7.24619 2.696 5.27819 2.44V0.743999H4.03019V2.424C2.23819 2.648 0.974188 3.944 0.974188 5.464C0.974188 7.032 1.99819 8.04 3.63019 8.376L4.03019 8.456V11.8C2.76619 11.576 2.15819 10.584 2.06219 9.56L0.542188 10.04C0.718188 11.448 1.80619 12.984 4.03019 13.208V14.872H5.27819ZM6.79819 10.248C6.79819 10.984 6.31819 11.608 5.27819 11.8V8.712C6.31819 8.952 6.79819 9.576 6.79819 10.248ZM2.55819 5.4C2.55819 4.616 3.10219 3.992 4.03019 3.816V6.856C2.94219 6.648 2.55819 6.072 2.55819 5.4Z" fill="#ABAFB3"/>
</svg>
