<svg width="16" height="13" viewBox="0 0 16 13" fill="none" xmlns="http://www.w3.org/2000/svg">
<path fill-rule="evenodd" clip-rule="evenodd" d="M14.0495 8.4891L15.9404 2.81584C16.0352 2.54341 15.9636 2.37928 15.8872 2.27099C15.6912 1.99403 15.2883 1.99133 15.21 1.99133L4.52405 1.9893L4.23897 0.63304C4.16219 0.312896 3.93433 0.00747204 3.47565 0.00747204L0.999388 0C0.688208 0 -0.0078125 0.15352 -0.0078125 0.445392L-0.000612497 0.999968C0.0306275 1.93842 0.676308 1.99992 0.999388 1.99992H2.99935L4.95973 9.84355C4.65153 10.1709 4.48365 10.6484 4.48365 11.0931C4.48365 12.0727 5.26173 12.9757 6.25531 12.9757C7.19361 12.9757 7.89697 12.0944 8.01117 11.5688H11.7906C11.9047 12.0944 12.4744 12.9967 13.5459 12.9967C14.5225 12.9967 15.3165 12.1482 15.3165 11.1706C15.3165 10.1983 14.7268 9.33531 13.5555 9.33531C13.0687 9.33531 12.4908 9.59826 12.2226 9.9923H7.57859C7.24179 9.4669 6.78163 9.30413 6.31573 9.28581L6.25221 8.94126H13.318C13.8504 8.94126 13.9553 8.74683 14.0495 8.4891ZM5.56741 11.1492C5.56741 10.7766 5.86987 10.4732 6.24147 10.4732C6.61213 10.4732 6.91415 10.7766 6.91415 11.1492C6.91415 11.5215 6.61213 11.8249 6.24147 11.8249C5.86987 11.8238 5.56741 11.5215 5.56741 11.1492ZM13.5596 11.8159C13.1926 11.8159 12.8937 11.517 12.8937 11.1485C12.8937 10.7807 13.1921 10.4813 13.5596 10.4813C13.9272 10.4813 14.2251 10.7807 14.2251 11.1485C14.2251 11.517 13.9266 11.8159 13.5596 11.8159Z" fill="#AAAAAA"/>
</svg>
