<svg width="16" height="13" viewBox="0 0 16 13" fill="none" xmlns="http://www.w3.org/2000/svg">
<path fill-rule="evenodd" clip-rule="evenodd" d="M7.33325 0H1.33322C0.597942 0 0 0.647728 0 1.44443V11.5556C0 12.3519 0.597942 12.9999 1.33322 12.9999H7.33325V7.64514L8.39057 6.49981L7.33325 5.35427V0ZM2.66657 2.88862H5.33327C5.7019 2.88862 5.9999 3.21238 5.9999 3.61096C5.9999 4.00976 5.7019 4.33306 5.33327 4.33306H2.66657C2.29797 4.33306 1.99996 4.00976 1.99996 3.61096C1.99996 3.21238 2.29797 2.88862 2.66657 2.88862ZM5.33327 10.111H2.66657C2.29797 10.111 1.99996 9.78747 1.99996 9.38867C1.99996 8.9901 2.29797 8.66658 2.66657 8.66658H5.33327C5.7019 8.66658 5.9999 8.9901 5.9999 9.38867C5.9999 9.78747 5.7019 10.111 5.33327 10.111ZM5.9999 7.22214H3.33331C2.96458 7.22214 2.66657 6.8984 2.66657 6.49981C2.66657 6.10123 2.96458 5.77771 3.33331 5.77771H5.9999C6.36863 5.77771 6.66664 6.10123 6.66664 6.49981C6.66664 6.8984 6.36863 7.22214 5.9999 7.22214ZM14.6666 0H8.6666V4.75629L10.276 6.49981L8.6666 8.24334V12.9999H14.6666C15.4019 12.9999 16 12.3519 16 11.5554V1.44443C16 0.647728 15.4019 0 14.6666 0ZM9.99995 4.33306C9.63122 4.33306 9.33334 4.00976 9.33334 3.61096C9.33334 3.21238 9.63122 2.88862 9.99995 2.88862H12.6665C13.0353 2.88862 13.3333 3.21238 13.3333 3.61096C13.3333 4.00976 13.0353 4.33306 12.6665 4.33306H9.99995ZM12.6665 10.111H9.99995C9.63122 10.111 9.33334 9.78747 9.33334 9.38867C9.33334 8.9901 9.63122 8.66658 9.99995 8.66658H12.6665C13.0353 8.66658 13.3333 8.9901 13.3333 9.38867C13.3333 9.78747 13.0353 10.111 12.6665 10.111ZM13.3333 7.22214H11.3333C10.9646 7.22214 10.6666 6.8984 10.6666 6.49981C10.6666 6.10123 10.9646 5.77771 11.3333 5.77771H13.3333C13.7019 5.77771 13.9999 6.10123 13.9999 6.49981C13.9999 6.8984 13.7019 7.22214 13.3333 7.22214Z" fill="#AAAAAA"/>
</svg>
