<svg width="385" height="98" viewBox="0 0 385 98" fill="none" xmlns="http://www.w3.org/2000/svg">
<g filter="url(#filter0_d_3173_4038)">
<mask id="path-1-inside-1_3173_4038" fill="white">
<path fill-rule="evenodd" clip-rule="evenodd" d="M9.54314 73.0498C9.54314 73.0498 27.3267 83.5563 52.3553 54.4457C52.3553 54.4457 67.3942 38.7966 78.7015 66.4843C78.7015 66.4843 84.8487 94.6093 106.145 77.4277C106.145 77.4277 116.025 64.4047 132.491 73.0498C132.491 73.0498 149.067 95.4854 162.131 71.9565C162.131 71.9565 180.792 -24.8961 198.356 16.1434C198.356 16.1434 224.812 81.5869 243.364 61.0126C243.364 61.0126 256.537 49.5217 280.688 50.069C280.688 50.069 300.227 47.0045 305.936 63.2016C305.936 63.2016 322.622 80.1643 336.673 69.7676C336.673 69.7676 360.055 52.9142 373.996 70.862"/>
</mask>
<path d="M52.3553 54.4457L50.1922 52.367L50.1346 52.4269L50.0804 52.4899L52.3553 54.4457ZM78.7015 66.4843L81.6323 65.8437L81.5769 65.5902L81.4788 65.35L78.7015 66.4843ZM106.145 77.4277L108.029 79.7625L108.314 79.5326L108.535 79.2409L106.145 77.4277ZM132.491 73.0498L134.904 71.2671L134.495 70.7136L133.886 70.3937L132.491 73.0498ZM162.131 71.9565L164.753 73.4127L164.986 72.9942L165.076 72.5241L162.131 71.9565ZM198.356 16.1434L201.138 15.019L201.126 14.9909L201.114 14.963L198.356 16.1434ZM243.364 61.0126L241.392 58.7519L241.256 58.8701L241.136 59.0037L243.364 61.0126ZM280.688 50.069L280.62 53.0682L280.888 53.0743L281.152 53.0328L280.688 50.069ZM305.936 63.2016L303.106 64.1988L303.328 64.829L303.797 65.3054L305.936 63.2016ZM336.673 69.7676L334.919 67.334L334.904 67.3449L334.889 67.356L336.673 69.7676ZM9.54314 73.0498C8.01717 75.6327 8.01955 75.6341 8.022 75.6356C8.02291 75.6361 8.02543 75.6376 8.02726 75.6387C8.0309 75.6408 8.03483 75.6431 8.03904 75.6456C8.04747 75.6505 8.05703 75.656 8.06772 75.6621C8.08911 75.6743 8.11501 75.6889 8.1454 75.7057C8.20618 75.7392 8.28493 75.7815 8.38133 75.8308C8.57408 75.9296 8.83775 76.0569 9.16972 76.1999C9.83342 76.4856 10.7723 76.8347 11.9646 77.1418C14.3548 77.7574 17.7501 78.2005 21.9609 77.6378C30.4376 76.505 41.7633 71.3668 54.6301 56.4015L50.0804 52.4899C37.9187 66.6352 27.8384 70.799 21.1661 71.6907C17.8024 72.1402 15.1876 71.7761 13.4611 71.3314C12.5952 71.1084 11.9492 70.8641 11.5426 70.689C11.3394 70.6015 11.1966 70.5316 11.1166 70.4906C11.0766 70.4701 11.0525 70.4569 11.0444 70.4525C11.0404 70.4503 11.0404 70.4503 11.0445 70.4526C11.0466 70.4538 11.0496 70.4555 11.0537 70.4579C11.0558 70.4591 11.0581 70.4604 11.0606 70.4619C11.0619 70.4627 11.064 70.4639 11.0647 70.4643C11.0669 70.4656 11.0691 70.4669 9.54314 73.0498ZM52.3553 54.4457C54.5183 56.5245 54.5171 56.5257 54.5159 56.5269C54.5156 56.5273 54.5145 56.5284 54.5139 56.5291C54.5126 56.5304 54.5115 56.5315 54.5107 56.5323C54.509 56.5341 54.5082 56.5349 54.5083 56.5348C54.5084 56.5347 54.5119 56.5311 54.5187 56.5243C54.5325 56.5106 54.5595 56.4839 54.5991 56.446C54.6787 56.37 54.8082 56.2498 54.9832 56.0989C55.3352 55.7952 55.8596 55.3769 56.5203 54.9462C57.87 54.0661 59.6276 53.2384 61.5489 53.0708C63.3698 52.9119 65.5382 53.3221 67.928 55.255C70.3966 57.2517 73.2076 60.9666 75.9242 67.6185L81.4788 65.35C78.5417 58.1581 75.2326 53.4462 71.7012 50.59C68.0911 47.67 64.3796 46.801 61.0274 47.0935C57.7755 47.3772 55.0667 48.7312 53.2432 49.9202C52.3173 50.5239 51.5785 51.1119 51.0639 51.5559C50.8055 51.7787 50.601 51.9677 50.4547 52.1074C50.3815 52.1774 50.3226 52.2352 50.2787 52.279C50.2568 52.301 50.2386 52.3194 50.2241 52.3341C50.2169 52.3415 50.2106 52.3479 50.2053 52.3534C50.2026 52.3562 50.2002 52.3587 50.198 52.3609C50.1969 52.3621 50.1955 52.3636 50.1949 52.3641C50.1935 52.3656 50.1922 52.367 52.3553 54.4457ZM78.7015 66.4843C75.7707 67.1248 75.771 67.1262 75.7713 67.1276C75.7714 67.1282 75.7718 67.1298 75.772 67.131C75.7726 67.1335 75.7732 67.1364 75.774 67.1398C75.7755 67.1465 75.7773 67.1549 75.7796 67.165C75.7842 67.1852 75.7903 67.2121 75.7981 67.2454C75.8136 67.312 75.8357 67.4045 75.8645 67.5204C75.9222 67.7522 76.0073 68.0788 76.1222 68.4817C76.3514 69.2859 76.702 70.4036 77.194 71.6854C78.1638 74.212 79.7472 77.546 82.1623 80.3549C84.5988 83.1887 88.0566 85.6745 92.6877 85.9606C97.2759 86.2439 102.373 84.3257 108.029 79.7625L104.261 75.0928C99.2692 79.1204 95.6116 80.1297 93.0575 79.972C90.5464 79.8169 88.4743 78.493 86.7119 76.4432C84.9282 74.3686 83.6438 71.7452 82.7955 69.5353C82.3785 68.4488 82.0824 67.5035 81.8923 66.8367C81.7975 66.5041 81.7297 66.2432 81.6869 66.0714C81.6656 65.9856 81.6505 65.9222 81.6415 65.8834C81.6369 65.8641 81.6339 65.8509 81.6324 65.8442C81.6317 65.8408 81.6313 65.8391 81.6313 65.839C81.6313 65.8389 81.6313 65.8393 81.6315 65.8401C81.6316 65.8405 81.6318 65.8414 81.6318 65.8416C81.6321 65.8426 81.6323 65.8437 78.7015 66.4843ZM106.145 77.4277C108.535 79.2409 108.534 79.2421 108.533 79.2433C108.533 79.2437 108.532 79.2448 108.532 79.2455C108.531 79.2469 108.53 79.248 108.529 79.249C108.527 79.251 108.527 79.2522 108.526 79.2526C108.525 79.2535 108.527 79.2515 108.531 79.2466C108.539 79.2368 108.555 79.2157 108.581 79.1842C108.633 79.1213 108.72 79.0176 108.841 78.881C109.085 78.6072 109.465 78.2053 109.974 77.7385C110.998 76.7995 112.506 75.631 114.442 74.701C118.195 72.8982 123.779 71.864 131.096 75.706L133.886 70.3937C124.737 65.5906 117.147 66.7453 111.844 69.2926C109.252 70.5378 107.262 72.0847 105.918 73.3173C105.243 73.9363 104.723 74.4843 104.362 74.889C104.182 75.0916 104.04 75.2592 103.939 75.3828C103.888 75.4447 103.848 75.4956 103.817 75.5346C103.802 75.5541 103.789 75.5705 103.779 75.5839C103.773 75.5906 103.769 75.5965 103.765 75.6016C103.763 75.6041 103.761 75.6065 103.76 75.6087C103.759 75.6097 103.758 75.6112 103.757 75.6117C103.756 75.6131 103.755 75.6145 106.145 77.4277ZM132.491 73.0498C130.078 74.8326 130.079 74.8337 130.08 74.8349C130.08 74.8354 130.081 74.8367 130.082 74.8377C130.083 74.8398 130.085 74.8422 130.087 74.845C130.091 74.8505 130.097 74.8573 130.103 74.8655C130.115 74.8819 130.131 74.9036 130.152 74.9304C130.192 74.9839 130.249 75.0576 130.321 75.1495C130.466 75.3332 130.672 75.5898 130.936 75.9024C131.462 76.5261 132.222 77.3796 133.177 78.3227C135.061 80.1826 137.826 82.5132 141.154 84.0501C144.515 85.6021 148.647 86.4251 152.993 84.8803C157.305 83.3474 161.275 79.6778 164.753 73.4127L159.508 70.5003C156.454 75.9996 153.453 78.3489 150.983 79.2269C148.547 80.0929 146.086 79.7187 143.67 78.6029C141.221 77.4721 139.025 75.6643 137.393 74.0529C136.59 73.2602 135.953 72.5448 135.522 72.0335C135.307 71.7785 135.144 71.5761 135.039 71.4426C134.987 71.3759 134.949 71.3265 134.926 71.2966C134.915 71.2816 134.907 71.2715 134.903 71.2665C134.902 71.264 134.901 71.2628 134.901 71.2629C134.901 71.2629 134.901 71.2633 134.902 71.264C134.902 71.2643 134.902 71.2651 134.903 71.2653C134.903 71.2662 134.904 71.2671 132.491 73.0498ZM162.131 71.9565C165.076 72.5241 165.076 72.5241 165.076 72.5237C165.077 72.5231 165.077 72.5224 165.077 72.5211C165.077 72.5187 165.078 72.5148 165.079 72.5094C165.081 72.4987 165.084 72.4822 165.089 72.46C165.097 72.4156 165.111 72.3485 165.128 72.2596C165.163 72.0818 165.216 71.8167 165.285 71.4716C165.424 70.7813 165.631 69.7708 165.901 68.4973C166.442 65.9499 167.233 62.3532 168.238 58.1642C170.252 49.7687 173.104 39.0662 176.48 29.6751C178.169 24.9771 179.966 20.6731 181.825 17.176C183.72 13.6107 185.531 11.171 187.137 9.91138C187.91 9.3059 188.496 9.08304 188.907 9.02565C189.265 8.97558 189.681 9.02049 190.244 9.34955C191.562 10.1187 193.457 12.3199 195.598 17.3237L201.114 14.963C198.865 9.70695 196.335 5.95744 193.27 4.16799C191.642 3.21775 189.878 2.83141 188.075 3.0835C186.326 3.32828 184.773 4.14101 183.435 5.18991C180.822 7.239 178.534 10.5833 176.527 14.3601C174.483 18.2052 172.575 22.8015 170.834 27.6451C167.349 37.3373 164.438 48.2829 162.404 56.7648C161.384 61.0145 160.581 64.6638 160.032 67.2527C159.757 68.5474 159.546 69.5776 159.404 70.286C159.332 70.6402 159.278 70.914 159.241 71.1002C159.223 71.1933 159.209 71.2645 159.199 71.3129C159.195 71.3371 159.191 71.3556 159.189 71.3683C159.187 71.3747 159.187 71.3796 159.186 71.383C159.186 71.3847 159.185 71.3862 159.185 71.387C159.185 71.3881 159.185 71.3889 162.131 71.9565ZM198.356 16.1434C195.575 17.2677 195.575 17.2684 195.576 17.2694C195.576 17.2701 195.577 17.2713 195.577 17.2726C195.578 17.2753 195.58 17.2789 195.581 17.2835C195.585 17.2927 195.591 17.3059 195.597 17.3229C195.611 17.3569 195.632 17.4064 195.658 17.4707C195.711 17.5993 195.789 17.7875 195.89 18.0305C196.093 18.5164 196.392 19.222 196.778 20.1102C197.549 21.8859 198.669 24.3942 200.072 27.3378C202.87 33.2113 206.82 40.8775 211.385 47.9245C215.892 54.881 221.228 61.6028 226.893 65.2118C229.767 67.0426 232.963 68.2251 236.319 67.984C239.747 67.7377 242.87 66.0409 245.592 63.0216L241.136 59.0037C239.221 61.1279 237.459 61.8866 235.889 61.9994C234.247 62.1174 232.332 61.5627 230.117 60.1514C225.604 57.2762 220.847 51.4948 216.421 44.6622C212.053 37.9201 208.23 30.5112 205.488 24.757C204.121 21.8868 203.029 19.4431 202.281 17.7202C201.907 16.8591 201.619 16.1787 201.426 15.7161C201.329 15.4848 201.256 15.308 201.208 15.1902C201.184 15.1314 201.166 15.0873 201.154 15.0585C201.148 15.0442 201.144 15.0337 201.141 15.027C201.14 15.0237 201.139 15.0214 201.138 15.0201C201.138 15.0194 201.138 15.0191 201.138 15.0188C201.138 15.0188 201.138 15.019 198.356 16.1434ZM243.364 61.0126C245.336 63.2734 245.335 63.2743 245.334 63.2751C245.334 63.2753 245.333 63.276 245.333 63.2765C245.332 63.2773 245.331 63.278 245.33 63.2785C245.329 63.2795 245.329 63.2798 245.329 63.2795C245.33 63.2788 245.334 63.2754 245.341 63.2694C245.355 63.2573 245.382 63.2349 245.421 63.2027C245.5 63.1383 245.628 63.035 245.806 62.8985C246.161 62.6254 246.713 62.2197 247.457 61.7263C248.946 60.7392 251.201 59.4039 254.188 58.0772C260.153 55.4267 269.046 52.8059 280.62 53.0682L280.756 47.0698C268.179 46.7847 258.41 49.6358 251.751 52.594C248.426 54.0716 245.878 55.5748 244.142 56.7252C243.274 57.3005 242.608 57.7883 242.149 58.1414C241.919 58.3181 241.741 58.4611 241.615 58.5648C241.551 58.6166 241.501 58.6586 241.464 58.69C241.446 58.7057 241.43 58.7188 241.418 58.7292C241.412 58.7343 241.407 58.7388 241.403 58.7426C241.4 58.7445 241.399 58.7462 241.397 58.7478C241.396 58.7485 241.395 58.7496 241.394 58.75C241.393 58.7509 241.392 58.7519 243.364 61.0126ZM280.688 50.069C281.152 53.0328 281.151 53.0329 281.15 53.0331C281.15 53.0331 281.149 53.0333 281.148 53.0334C281.147 53.0336 281.147 53.0337 281.146 53.0337C281.145 53.0339 281.145 53.0339 281.147 53.0337C281.149 53.0333 281.156 53.0322 281.168 53.0306C281.191 53.0273 281.232 53.0216 281.289 53.0143C281.404 52.9996 281.585 52.9782 281.824 52.9553C282.303 52.9095 283.01 52.8583 283.883 52.8428C285.64 52.8115 288.011 52.9258 290.513 53.4883C295.484 54.6057 300.708 57.3923 303.106 64.1988L308.765 62.2044C305.456 52.8137 298.055 49.0341 291.829 47.6344C288.733 46.9384 285.861 46.8066 283.776 46.8437C282.729 46.8624 281.865 46.924 281.253 46.9826C280.946 47.0119 280.702 47.0405 280.528 47.0628C280.441 47.0739 280.371 47.0835 280.32 47.0908C280.294 47.0945 280.273 47.0975 280.257 47.1C280.249 47.1012 280.242 47.1022 280.236 47.1031C280.233 47.1036 280.231 47.1039 280.229 47.1043C280.228 47.1045 280.226 47.1047 280.226 47.1048C280.224 47.105 280.223 47.1052 280.688 50.069ZM305.936 63.2016C303.797 65.3054 303.798 65.3062 303.799 65.3071C303.799 65.3075 303.8 65.3084 303.801 65.3092C303.802 65.3107 303.804 65.3125 303.806 65.3146C303.81 65.3187 303.815 65.3238 303.821 65.3299C303.834 65.3422 303.85 65.3585 303.87 65.3786C303.911 65.4189 303.967 65.4746 304.039 65.5444C304.183 65.6839 304.389 65.8799 304.653 66.1213C305.179 66.6037 305.937 67.2702 306.888 68.0317C308.781 69.5469 311.489 71.4765 314.702 73.0708C321.064 76.2273 330.107 78.3582 338.457 72.1793L334.889 67.356C329.188 71.5738 322.862 70.4216 317.369 67.6959C314.654 66.3491 312.312 64.6879 310.637 63.3474C309.805 62.681 309.149 62.1036 308.708 61.6989C308.487 61.4969 308.321 61.3386 308.214 61.2347C308.16 61.1827 308.121 61.1445 308.098 61.1212C308.086 61.1096 308.078 61.1017 308.074 61.0977C308.072 61.0957 308.071 61.0947 308.071 61.0947C308.071 61.0947 308.072 61.095 308.072 61.0955C308.072 61.0957 308.073 61.0963 308.073 61.0964C308.074 61.0971 308.074 61.0978 305.936 63.2016ZM336.673 69.7676C338.427 72.2013 338.426 72.202 338.426 72.2025C338.426 72.2026 338.425 72.2031 338.425 72.2033C338.424 72.2037 338.424 72.2038 338.424 72.2037C338.424 72.2035 338.426 72.2023 338.429 72.2001C338.435 72.1958 338.447 72.1875 338.464 72.1756C338.498 72.1518 338.553 72.1133 338.629 72.0616C338.78 71.9583 339.013 71.8025 339.32 71.6068C339.934 71.2148 340.837 70.6651 341.968 70.0553C344.243 68.8286 347.371 67.394 350.861 66.4881C357.812 64.6836 365.674 65.0386 371.627 72.7023L376.366 69.0217C368.377 58.7376 357.578 58.5454 349.353 60.6806C345.254 61.7447 341.665 63.4017 339.12 64.7742C337.841 65.4639 336.81 66.0907 336.09 66.5503C335.73 66.7803 335.447 66.9691 335.249 67.1039C335.15 67.1713 335.073 67.2252 335.017 67.2641C334.99 67.2835 334.968 67.2992 334.951 67.3109C334.943 67.3167 334.936 67.3216 334.931 67.3255C334.928 67.3274 334.926 67.3291 334.924 67.3305C334.923 67.3312 334.922 67.3321 334.921 67.3324C334.92 67.3332 334.919 67.334 336.673 69.7676Z" fill="white" mask="url(#path-1-inside-1_3173_4038)"/>
</g>
<defs>
<filter id="filter0_d_3173_4038" x="0.342969" y="0.908789" width="384.453" height="96.9785" filterUnits="userSpaceOnUse" color-interpolation-filters="sRGB">
<feFlood flood-opacity="0" result="BackgroundImageFix"/>
<feColorMatrix in="SourceAlpha" type="matrix" values="0 0 0 0 0 0 0 0 0 0 0 0 0 0 0 0 0 0 127 0" result="hardAlpha"/>
<feOffset dx="0.8" dy="4.9"/>
<feGaussianBlur stdDeviation="5"/>
<feColorMatrix type="matrix" values="0 0 0 0 0.788235 0 0 0 0 0.796078 0 0 0 0 0.815686 0 0 0 1 0"/>
<feBlend mode="normal" in2="BackgroundImageFix" result="effect1_dropShadow_3173_4038"/>
<feBlend mode="normal" in="SourceGraphic" in2="effect1_dropShadow_3173_4038" result="shape"/>
</filter>
</defs>
</svg>
