<svg width="16" height="16" viewBox="0 0 16 16" fill="none" xmlns="http://www.w3.org/2000/svg">
<path fill-rule="evenodd" clip-rule="evenodd" d="M14.5937 0.937555H14.125V0.468901C14.125 0.209798 13.9153 0 13.6562 0C13.3971 0 13.1875 0.209798 13.1875 0.468901V0.937555H11.2812V0.468901C11.2812 0.209798 11.0716 0 10.8125 0C10.5534 0 10.3437 0.209798 10.3437 0.468901V0.937555H8.46873V0.468901C8.46873 0.209798 8.25908 0 7.99999 0C7.74088 0 7.53124 0.209798 7.53124 0.468901V0.937555H5.65623V0.468901C5.65623 0.209798 5.44658 0 5.18749 0C4.92838 0 4.71874 0.209798 4.71874 0.468901V0.937555H2.8125V0.468901C2.8125 0.209798 2.60273 0 2.34374 0C2.08465 0 1.87499 0.209798 1.87499 0.468901V0.937555H1.40625C0.630792 0.937555 0 1.56832 0 2.34378V3.78119H16V2.34378C16 1.56832 15.3692 0.937555 14.5937 0.937555ZM9.10319 9.37941L9.90153 8.60102L8.79833 8.44026C8.64544 8.41833 8.5136 8.32225 8.44538 8.18389L7.95191 7.18417L7.45844 8.18389C7.39024 8.32225 7.25841 8.41833 7.10552 8.44026L6.0023 8.60102L6.80065 9.37941C6.91085 9.48679 6.96132 9.64187 6.93522 9.79403L6.74663 10.9242L7.73402 10.4058C7.80223 10.3696 7.87685 10.3515 7.95191 10.3515C8.02699 10.3515 8.1016 10.3696 8.16982 10.4058L9.15721 10.9242L8.96861 9.79403C8.94253 9.64187 8.99287 9.48679 9.10319 9.37941ZM0 4.71875V13.1877H16V4.71875H0ZM11.2363 8.60938L9.93393 9.91002L10.2415 11.7022C10.2719 11.8778 10.1994 12.0555 10.0552 12.1604C9.91012 12.2662 9.71728 12.2784 9.56176 12.1959L7.95181 11.3501L6.34185 12.1959C6.18575 12.2802 5.9935 12.266 5.84838 12.1604C5.70418 12.0555 5.63186 11.8778 5.66206 11.7022L5.96968 9.91002L4.66735 8.60938C4.53964 8.48479 4.49397 8.29852 4.5488 8.12917C4.60418 7.95916 4.75067 7.83573 4.92736 7.80995L6.72683 7.54815L7.53158 5.91766C7.68904 5.59731 8.21457 5.59731 8.37214 5.91766L9.17689 7.54815L10.9764 7.80995C11.1529 7.83573 11.2995 7.95916 11.3548 8.12917C11.4099 8.29852 11.364 8.48479 11.2363 8.60938ZM0 14.5937V14.1251H16V14.5937C16 15.3692 15.3692 15.9999 14.5937 15.9999H1.40625C0.630792 15.9999 0 15.3692 0 14.5937Z" fill="#AAAAAA"/>
</svg>
