<svg width="16" height="16" viewBox="0 0 16 16" fill="none" xmlns="http://www.w3.org/2000/svg">
<path fill-rule="evenodd" clip-rule="evenodd" d="M11.0718 6.15277H7.2734L6.27284 5.24438H4.5679C4.43743 5.24438 4.33136 5.35042 4.33136 5.48065V11.2886C4.33136 11.4191 4.43743 11.5251 4.5679 11.5251H4.74757L5.69092 6.67005H11.308V6.38903C11.308 6.25881 11.2019 6.15277 11.0718 6.15277ZM7.99976 0C3.58166 0 0 3.58178 0 7.99963C0 12.4177 3.58166 15.9997 7.99976 15.9997C12.4179 15.9997 16 12.4177 16 7.99963C16 3.58156 12.4179 0 7.99976 0ZM12.1195 11.3449C12.0906 11.8959 11.6423 12.337 11.0878 12.3535C11.0825 12.3537 11.0773 12.3553 11.0718 12.3553L10.5795 12.3555L4.56768 12.3553C3.97978 12.3553 3.50154 11.8767 3.50154 11.2889V5.48065C3.50154 4.89282 3.97991 4.41444 4.56802 4.41444H6.5934L7.59384 5.3226H11.0718C11.6597 5.3226 12.1379 5.80078 12.1379 6.38926V6.67005L13.0928 6.67027L12.1195 11.3449Z" fill="#AAAAAA"/>
</svg>
