<svg width="16" height="19" viewBox="0 0 16 19" fill="none" xmlns="http://www.w3.org/2000/svg">
<path fill-rule="evenodd" clip-rule="evenodd" d="M4.92197 9.28761C4.92197 8.94579 5.19823 8.66772 5.53779 8.66772C5.87733 8.66772 6.15347 8.94579 6.15347 9.28761C6.15347 9.629 5.87733 9.90707 5.53779 9.90707C5.19823 9.90707 4.92197 9.629 4.92197 9.28761ZM9.84797 14.244C9.84797 13.9024 10.1242 13.6243 10.4638 13.6243C10.8032 13.6243 11.0795 13.9024 11.0795 14.244C11.0795 14.5856 10.8032 14.8634 10.4638 14.8634C10.1242 14.8634 9.84797 14.5856 9.84797 14.244ZM15.3897 -0.00585938H0.611914C0.271914 -0.00585938 -0.00390625 0.271313 -0.00390625 0.613829V18.3745C-0.00390625 18.589 0.106774 18.7884 0.287934 18.9012C0.469994 19.0143 0.696014 19.0242 0.887254 18.9284L3.07479 17.8278L5.26233 18.9284C5.43559 19.0156 5.63999 19.0156 5.81313 18.9284L8.00079 17.8278L10.1883 18.9284C10.2748 18.9722 10.3695 18.9939 10.4637 18.9939C10.5579 18.9939 10.6525 18.9722 10.7391 18.9284L12.9267 17.8278L15.1142 18.9284C15.3054 19.0242 15.5315 19.0143 15.7135 18.9012C15.8947 18.7884 16.0054 18.589 16.0054 18.3745V0.613829C16.0054 0.271313 15.7296 -0.00585938 15.3897 -0.00585938ZM3.07479 2.47244C3.41491 2.47244 3.69059 2.74984 3.69059 3.0919C3.69059 3.43418 3.41491 3.71158 3.07479 3.71158C2.73479 3.71158 2.45909 3.43418 2.45909 3.0919C2.45909 2.74984 2.73479 2.47244 3.07479 2.47244ZM3.07479 6.18986C2.73479 6.18986 2.45909 5.91225 2.45909 5.57019C2.45909 5.22811 2.73479 4.95073 3.07479 4.95073C3.41491 4.95073 3.69059 5.22811 3.69059 5.57019C3.69059 5.91225 3.41491 6.18986 3.07479 6.18986ZM3.69059 9.28761C3.69059 8.26257 4.51915 7.4288 5.53779 7.4288C6.55643 7.4288 7.38497 8.26257 7.38497 9.28761C7.38497 10.3124 6.55643 11.1462 5.53779 11.1462C4.51915 11.1462 3.69059 10.3124 3.69059 9.28761ZM5.82365 14.8327C5.70339 14.9536 5.54579 15.0142 5.38821 15.0142C5.23073 15.0142 5.07315 14.9536 4.95287 14.8327C4.71243 14.5908 4.71243 14.1985 4.95287 13.9564L10.1775 8.69936C10.418 8.45722 10.8077 8.45722 11.0482 8.69936C11.2887 8.94126 11.2887 9.33352 11.0482 9.57541L5.82365 14.8327ZM10.4638 16.1026C9.44515 16.1026 8.61647 15.269 8.61647 14.244C8.61647 13.2192 9.44515 12.3854 10.4638 12.3854C11.4823 12.3854 12.311 13.2192 12.311 14.244C12.311 15.269 11.4823 16.1026 10.4638 16.1026ZM12.9267 6.18986H5.53779C5.19789 6.18986 4.92197 5.91248 4.92197 5.57019C4.92197 5.22811 5.19789 4.95073 5.53779 4.95073H12.9267C13.2666 4.95073 13.5425 5.22811 13.5425 5.57019C13.5425 5.91248 13.2666 6.18986 12.9267 6.18986ZM12.9267 3.71158H5.53779C5.19789 3.71158 4.92197 3.43418 4.92197 3.0919C4.92197 2.74961 5.19789 2.47244 5.53779 2.47244H12.9267C13.2666 2.47244 13.5425 2.74984 13.5425 3.0919C13.5425 3.43418 13.2666 3.71158 12.9267 3.71158Z" fill="#AAAAAA"/>
</svg>
