<svg width="389" height="95" viewBox="0 0 389 95" fill="none" xmlns="http://www.w3.org/2000/svg">
<g filter="url(#filter0_d_3173_4066)">
<mask id="path-1-inside-1_3173_4066" fill="white">
<path fill-rule="evenodd" clip-rule="evenodd" d="M10.0079 72.3355C10.0079 72.3355 27.9101 78.5141 53.1058 49.1677C53.1058 49.1677 64.3775 35.0459 78.5227 67.9229C78.5227 67.9229 98.5244 93.5186 107.254 70.1297C107.254 70.1297 116.095 -14.1581 133.776 10.5543C133.776 10.5543 152.673 73.4395 170.244 56.8909C170.244 56.8909 187.372 24.8964 210.027 42.5485C210.027 42.5485 235.554 74.3219 250.914 53.5811C250.914 53.5811 270.253 24.3448 290.697 59.0974C290.697 59.0974 307.052 77.5216 317.219 63.51C317.219 63.51 333.463 29.3093 351.476 35.9289C351.476 35.9289 365.069 38.2453 377.998 57.9939"/>
</mask>
<path d="M53.1058 49.1677L55.382 51.122L55.417 51.0812L55.4505 51.0392L53.1058 49.1677ZM78.5227 67.9229L75.7669 69.1086L75.9201 69.4647L76.1588 69.7702L78.5227 67.9229ZM107.254 70.1297L110.065 71.1788L110.198 70.8217L110.238 70.4427L107.254 70.1297ZM133.776 10.5543L136.649 9.69097L136.506 9.21388L136.216 8.80873L133.776 10.5543ZM170.244 56.8909L172.301 59.0748L172.657 58.7388L172.889 58.3068L170.244 56.8909ZM210.027 42.5485L212.365 40.6696L212.146 40.397L211.87 40.1821L210.027 42.5485ZM250.914 53.5811L253.325 55.3665L253.372 55.3025L253.416 55.2362L250.914 53.5811ZM290.697 59.0974L288.111 60.6185L288.259 60.8705L288.453 61.089L290.697 59.0974ZM317.219 63.51L319.647 65.2719L319.81 65.0475L319.929 64.7971L317.219 63.51ZM351.476 35.9289L350.441 38.7448L350.7 38.8399L350.972 38.8863L351.476 35.9289ZM10.0079 72.3355C9.02911 75.1714 9.03181 75.1723 9.03458 75.1733C9.0356 75.1736 9.03844 75.1746 9.04048 75.1753C9.04455 75.1767 9.04891 75.1781 9.05355 75.1797C9.06283 75.1828 9.07323 75.1863 9.08477 75.1901C9.10784 75.1977 9.13541 75.2065 9.16745 75.2165C9.23153 75.2365 9.31347 75.2609 9.41294 75.2885C9.61188 75.3437 9.881 75.4115 10.2176 75.4813C10.8909 75.6208 11.8339 75.768 13.0243 75.8373C15.41 75.9763 18.767 75.8013 22.9133 74.6465C31.2265 72.3312 42.4837 66.145 55.382 51.122L50.8296 47.2135C38.5321 61.5368 28.2404 66.9345 21.3035 68.8665C17.8248 69.8354 15.1315 69.9499 13.3732 69.8475C12.4916 69.7961 11.8391 69.6898 11.435 69.6061C11.2329 69.5642 11.0928 69.5279 11.0172 69.507C10.9794 69.4965 10.9577 69.4898 10.9525 69.4882C10.9499 69.4874 10.9514 69.4878 10.9571 69.4897C10.9599 69.4906 10.9638 69.4919 10.9687 69.4936C10.9712 69.4944 10.9739 69.4953 10.9769 69.4963C10.9784 69.4968 10.9808 69.4977 10.9815 69.4979C10.984 69.4988 10.9866 69.4997 10.0079 72.3355ZM53.1058 49.1677C55.4505 51.0392 55.4489 51.0412 55.4474 51.0431C55.447 51.0436 55.4455 51.0455 55.4446 51.0466C55.4428 51.0489 55.4411 51.0509 55.4396 51.0528C55.4366 51.0565 55.4342 51.0595 55.4324 51.0617C55.4288 51.066 55.4276 51.0674 55.4288 51.066C55.4312 51.0631 55.4431 51.0492 55.464 51.0259C55.5062 50.9792 55.5836 50.8965 55.6938 50.7908C55.9172 50.5767 56.2572 50.2858 56.6946 50.0085C57.5674 49.455 58.7225 49.0145 60.1339 49.1928C62.9754 49.5516 68.7363 52.7675 75.7669 69.1086L81.2784 66.7373C74.1639 50.2013 67.2164 44.0396 60.8857 43.2401C57.7111 42.8392 55.1641 43.8744 53.4815 44.9413C52.6411 45.4742 51.99 46.0297 51.5418 46.4595C51.3161 46.6758 51.1375 46.8644 51.0077 47.0084C50.9426 47.0805 50.8894 47.1419 50.8484 47.1905C50.8278 47.2148 50.8102 47.2359 50.7957 47.2536C50.7884 47.2624 50.7819 47.2704 50.7761 47.2776C50.7733 47.2811 50.7706 47.2845 50.7681 47.2876C50.7668 47.2891 50.7651 47.2913 50.7645 47.2921C50.7628 47.2942 50.7611 47.2963 53.1058 49.1677ZM78.5227 67.9229C76.1588 69.7702 76.1595 69.771 76.1602 69.772C76.1606 69.7724 76.1614 69.7735 76.1621 69.7744C76.1635 69.7762 76.1652 69.7783 76.1672 69.7809C76.1713 69.786 76.1765 69.7927 76.183 69.8009C76.1959 69.8173 76.2137 69.8397 76.2362 69.8679C76.2812 69.9242 76.3451 70.0036 76.427 70.1038C76.5907 70.3039 76.8266 70.5875 77.1269 70.9359C77.7267 71.6317 78.5887 72.5919 79.6512 73.6663C81.7501 75.7887 84.7437 78.4721 88.1282 80.4029C91.4525 82.2994 95.66 83.7539 99.9088 82.5359C104.288 81.2807 107.707 77.4948 110.065 71.1788L104.444 69.0807C102.436 74.4591 100.082 76.2445 98.2554 76.7682C96.2985 77.3292 93.8687 76.7702 91.1014 75.1914C88.3941 73.6469 85.8417 71.3932 83.9174 69.4473C82.9684 68.4876 82.1995 67.6309 81.6714 67.0182C81.4078 66.7124 81.2054 66.4689 81.0718 66.3056C81.0051 66.224 80.9556 66.1625 80.9244 66.1234C80.9088 66.1038 80.8977 66.0899 80.8914 66.0819C80.8882 66.0778 80.8862 66.0753 80.8854 66.0743C80.885 66.0737 80.8848 66.0736 80.885 66.0738C80.8851 66.074 80.8855 66.0744 80.8855 66.0745C80.886 66.0751 80.8865 66.0757 78.5227 67.9229ZM107.254 70.1297C110.238 70.4427 110.238 70.4427 110.238 70.4424C110.238 70.4419 110.238 70.4413 110.238 70.4402C110.238 70.4381 110.239 70.4348 110.239 70.4301C110.24 70.4209 110.242 70.4066 110.244 70.3873C110.248 70.3488 110.254 70.2905 110.263 70.2131C110.28 70.0584 110.305 69.8274 110.339 69.526C110.407 68.9232 110.51 68.0391 110.647 66.9208C110.92 64.6838 111.332 61.5122 111.88 57.7823C112.979 50.3092 114.62 40.6507 116.798 31.791C119.015 22.7706 121.668 15.1159 124.574 11.2357C126.038 9.28142 127.019 9.00365 127.467 9.0176C127.964 9.03311 129.29 9.43954 131.336 12.3L136.216 8.80873C133.842 5.49103 131.024 3.12562 127.654 3.02051C124.233 2.91384 121.623 5.16667 119.772 7.63915C116.047 12.6126 113.175 21.3963 110.972 30.3588C108.729 39.482 107.055 49.3508 105.944 56.9095C105.387 60.6954 104.97 63.9157 104.691 66.1917C104.552 67.3299 104.447 68.2325 104.377 68.8523C104.342 69.1623 104.316 69.4015 104.298 69.5642C104.289 69.6456 104.282 69.7078 104.278 69.7501C104.276 69.7713 104.274 69.7875 104.273 69.7986C104.272 69.8042 104.272 69.8085 104.271 69.8115C104.271 69.813 104.271 69.8144 104.271 69.8151C104.271 69.8161 104.271 69.8168 107.254 70.1297ZM133.776 10.5543C130.903 11.4177 130.903 11.4184 130.903 11.4194C130.904 11.42 130.904 11.4212 130.904 11.4224C130.905 11.425 130.906 11.4285 130.908 11.4329C130.91 11.4417 130.914 11.4544 130.919 11.4707C130.929 11.5034 130.943 11.551 130.962 11.6129C131 11.7366 131.056 11.9176 131.129 12.1515C131.275 12.6193 131.491 13.2989 131.771 14.1555C132.33 15.8682 133.147 18.2912 134.183 21.1452C136.25 26.8399 139.209 34.3079 142.745 41.2847C146.234 48.1679 150.468 54.946 155.202 58.9281C157.595 60.9407 160.369 62.4553 163.447 62.6454C166.635 62.8423 169.631 61.5895 172.301 59.0748L168.187 54.707C166.464 56.3295 165.026 56.7315 163.817 56.6568C162.499 56.5754 160.914 55.8921 159.064 54.3364C155.314 51.1818 151.528 45.3415 148.097 38.5719C144.713 31.896 141.848 24.6771 139.823 19.0979C138.813 16.315 138.017 13.9544 137.474 12.2927C137.203 11.4621 136.995 10.8069 136.856 10.3616C136.786 10.1389 136.734 9.96882 136.699 9.8556C136.682 9.79899 136.669 9.7566 136.661 9.72898C136.656 9.71517 136.653 9.70505 136.651 9.69869C136.65 9.69552 136.65 9.69328 136.649 9.69199C136.649 9.69134 136.649 9.69109 136.649 9.69076C136.649 9.69075 136.649 9.69097 133.776 10.5543ZM170.244 56.8909C172.889 58.3068 172.888 58.3077 172.888 58.3085C172.888 58.3086 172.887 58.3092 172.887 58.3094C172.887 58.3098 172.887 58.3097 172.887 58.3091C172.888 58.308 172.89 58.305 172.892 58.3001C172.898 58.2903 172.907 58.2731 172.92 58.2488C172.947 58.2002 172.99 58.1233 173.049 58.0204C173.166 57.8146 173.346 57.5055 173.585 57.1128C174.065 56.3266 174.781 55.2104 175.709 53.9197C177.579 51.3211 180.253 48.0983 183.534 45.4266C186.825 42.7473 190.557 40.7589 194.575 40.3252C198.499 39.9018 203.055 40.9196 208.183 44.915L211.87 40.1821C205.671 35.3514 199.591 33.749 193.931 34.3598C188.366 34.9605 183.569 37.6609 179.746 40.7738C175.913 43.8941 172.889 47.5667 170.839 50.4154C169.808 51.8484 169.009 53.0939 168.463 53.9884C168.19 54.4361 167.98 54.7972 167.835 55.0514C167.762 55.1786 167.706 55.2791 167.667 55.3505C167.647 55.3862 167.632 55.4147 167.62 55.4355C167.615 55.4459 167.61 55.4545 167.607 55.461C167.605 55.4643 167.603 55.4672 167.602 55.4695C167.601 55.4706 167.601 55.472 167.6 55.4726C167.6 55.4739 167.599 55.475 170.244 56.8909ZM210.027 42.5485C207.688 44.4275 207.689 44.4283 207.689 44.4292C207.69 44.4297 207.691 44.4308 207.691 44.4317C207.693 44.4336 207.695 44.436 207.697 44.4389C207.702 44.4446 207.708 44.4523 207.716 44.4618C207.731 44.4808 207.753 44.5074 207.78 44.5411C207.836 44.6085 207.915 44.7046 208.017 44.8268C208.222 45.0713 208.519 45.4205 208.9 45.8538C209.661 46.7196 210.759 47.9248 212.125 49.3017C214.842 52.0404 218.684 55.5276 223.085 58.3642C227.441 61.172 232.638 63.5338 238.004 63.607C243.591 63.6832 248.953 61.2701 253.325 55.3665L248.503 51.7956C245.195 56.2624 241.605 57.6555 238.086 57.6075C234.346 57.5565 230.281 55.8639 226.335 53.321C222.435 50.8068 218.935 47.647 216.385 45.0764C215.118 43.7986 214.102 42.6836 213.407 41.8928C213.06 41.4977 212.793 41.1846 212.617 40.9737C212.528 40.8683 212.463 40.7886 212.42 40.737C212.399 40.7112 212.384 40.6925 212.375 40.6812C212.37 40.6755 212.367 40.6717 212.365 40.6697C212.365 40.6688 212.364 40.6683 212.364 40.6682C212.364 40.6682 212.364 40.6686 212.364 40.6685C212.365 40.669 212.365 40.6696 210.027 42.5485ZM250.914 53.5811C253.416 55.2362 253.415 55.2373 253.415 55.2383C253.415 55.2386 253.414 55.2395 253.414 55.2399C253.413 55.2407 253.413 55.2411 253.413 55.241C253.413 55.2409 253.414 55.2391 253.417 55.2356C253.421 55.2287 253.431 55.2151 253.444 55.1952C253.472 55.1553 253.517 55.0903 253.579 55.0029C253.704 54.828 253.897 54.5643 254.153 54.234C254.668 53.5716 255.432 52.651 256.408 51.6449C258.39 49.6026 261.104 47.3559 264.256 46.0913C267.32 44.862 270.787 44.5529 274.607 46.302C278.531 48.0985 283.173 52.2251 288.111 60.6185L293.283 57.5763C287.998 48.5934 282.557 43.3423 277.105 40.8465C271.549 38.3031 266.348 38.787 262.022 40.5227C257.784 42.2231 254.386 45.1134 252.102 47.4669C250.946 48.6587 250.039 49.7506 249.417 50.5514C249.105 50.9526 248.862 51.2831 248.694 51.5195C248.609 51.6378 248.543 51.7327 248.496 51.8013C248.473 51.8357 248.454 51.8635 248.44 51.8843C248.433 51.8948 248.427 51.9035 248.422 51.9105C248.42 51.9139 248.418 51.917 248.416 51.9196C248.415 51.9208 248.414 51.9224 248.414 51.9231C248.413 51.9246 248.412 51.926 250.914 53.5811ZM290.697 59.0974C288.453 61.089 288.454 61.0899 288.455 61.0908C288.455 61.0911 288.456 61.0921 288.457 61.0929C288.458 61.0945 288.46 61.0963 288.462 61.0984C288.465 61.1027 288.47 61.1081 288.476 61.1145C288.488 61.1275 288.503 61.1448 288.523 61.1662C288.562 61.2092 288.616 61.2688 288.686 61.3436C288.825 61.4931 289.024 61.7034 289.277 61.9619C289.783 62.4782 290.511 63.1908 291.415 63.9967C293.207 65.5942 295.768 67.6259 298.735 69.2059C301.672 70.7703 305.266 72.0306 309.031 71.7216C312.952 71.3999 316.645 69.4094 319.647 65.2719L314.791 61.7482C312.709 64.6164 310.545 65.5773 308.54 65.7417C306.38 65.919 303.978 65.2005 301.556 63.9102C299.163 62.6357 297 60.937 295.407 59.5178C294.619 58.8154 293.99 58.1981 293.562 57.7615C293.348 57.5436 293.186 57.3718 293.08 57.2583C293.027 57.2015 292.989 57.1594 292.965 57.1335C292.954 57.1205 292.946 57.1116 292.941 57.1069C292.939 57.1046 292.938 57.1033 292.938 57.1031C292.938 57.103 292.938 57.1032 292.938 57.1037C292.939 57.1039 292.939 57.1044 292.939 57.1045C292.94 57.1052 292.94 57.1058 290.697 59.0974ZM317.219 63.51C319.929 64.7971 319.928 64.7977 319.928 64.7981C319.928 64.798 319.928 64.7983 319.928 64.7982C319.928 64.7981 319.929 64.7974 319.929 64.7963C319.93 64.7939 319.932 64.7896 319.935 64.7832C319.941 64.7705 319.951 64.7497 319.965 64.7212C319.993 64.6643 320.036 64.5764 320.094 64.46C320.209 64.2271 320.384 63.88 320.614 63.437C321.075 62.5504 321.757 61.2824 322.632 59.7777C324.388 56.7578 326.892 52.8338 329.915 49.1358C332.961 45.4097 336.402 42.0763 339.992 40.0622C343.523 38.0814 346.988 37.4759 350.441 38.7448L352.511 33.113C346.957 31.0721 341.637 32.2593 337.056 34.8294C332.535 37.3662 328.537 41.3418 325.27 45.3385C321.98 49.3631 319.298 53.5756 317.445 56.7615C316.516 58.3597 315.788 59.7119 315.29 60.6698C315.041 61.149 314.849 61.5303 314.718 61.7951C314.652 61.9276 314.602 62.031 314.567 62.103C314.549 62.139 314.536 62.1672 314.526 62.1873C314.521 62.1974 314.517 62.2054 314.514 62.2113C314.513 62.2143 314.512 62.2167 314.511 62.2187C314.511 62.2197 314.51 62.2207 314.51 62.2212C314.509 62.2221 314.509 62.2229 317.219 63.51ZM351.476 35.9289C350.972 38.8863 350.97 38.886 350.968 38.8857C350.968 38.8856 350.966 38.8853 350.965 38.8851C350.963 38.8848 350.961 38.8845 350.96 38.8842C350.957 38.8836 350.954 38.8832 350.953 38.8829C350.949 38.8823 350.949 38.8823 350.953 38.8829C350.959 38.8841 350.978 38.8878 351.009 38.8945C351.072 38.9077 351.183 38.9326 351.339 38.9728C351.652 39.0531 352.147 39.1945 352.795 39.4256C354.092 39.8874 356.009 40.7085 358.33 42.1193C362.96 44.9335 369.266 50.1345 375.488 59.6371L380.508 56.3507C373.8 46.1047 366.845 40.2732 361.447 36.9921C358.753 35.3552 356.464 34.3629 354.808 33.7733C353.981 33.4786 353.312 33.2847 352.831 33.1613C352.591 33.0995 352.397 33.0554 352.254 33.025C352.183 33.0099 352.124 32.9981 352.078 32.9894C352.055 32.985 352.035 32.9814 352.019 32.9784C352.011 32.9769 352.003 32.9756 351.997 32.9745C351.994 32.9739 351.991 32.9734 351.988 32.9729C351.986 32.9727 351.984 32.9723 351.984 32.9722C351.982 32.9719 351.98 32.9715 351.476 35.9289Z" fill="white" mask="url(#path-1-inside-1_3173_4066)"/>
</g>
<defs>
<filter id="filter0_d_3173_4066" x="0.807813" y="0.916602" width="387.99" height="93.9658" filterUnits="userSpaceOnUse" color-interpolation-filters="sRGB">
<feFlood flood-opacity="0" result="BackgroundImageFix"/>
<feColorMatrix in="SourceAlpha" type="matrix" values="0 0 0 0 0 0 0 0 0 0 0 0 0 0 0 0 0 0 127 0" result="hardAlpha"/>
<feOffset dx="0.8" dy="4.9"/>
<feGaussianBlur stdDeviation="5"/>
<feColorMatrix type="matrix" values="0 0 0 0 0.788235 0 0 0 0 0.796078 0 0 0 0 0.815686 0 0 0 1 0"/>
<feBlend mode="normal" in2="BackgroundImageFix" result="effect1_dropShadow_3173_4066"/>
<feBlend mode="normal" in="SourceGraphic" in2="effect1_dropShadow_3173_4066" result="shape"/>
</filter>
</defs>
</svg>
