<svg width="23" height="22" viewBox="0 0 23 22" fill="none" xmlns="http://www.w3.org/2000/svg">
<path fill-rule="evenodd" clip-rule="evenodd" d="M16.3574 9.76336C15.8433 9.7055 15.3192 9.83165 14.8739 10.1287L12.6989 7.98797C13.0075 7.53761 13.1387 7.00632 13.0793 6.48633L18.9317 0.633789L22.2083 3.91061L16.3574 9.76336ZM4.45506 17.0445L4.66678 17.257L8.38163 13.5396L9.30666 14.4525L5.58563 18.1742L5.79803 18.3897L4.90196 19.4959L1.95511 21.3649L1.47628 20.8867L3.34498 17.9414L4.45506 17.0445ZM9.75666 6.93669C10.1863 5.40069 9.79648 3.68407 8.59106 2.47589C7.38956 1.27925 5.69263 0.886101 4.16528 1.30073L6.75201 3.88641L6.07303 6.41918L3.53713 7.09742L0.952035 4.51377C0.53866 6.03981 0.93086 7.73678 2.13008 8.93683C3.38711 10.1945 5.19813 10.5632 6.78163 10.0482L6.79651 10.0625L17.4356 20.7014C17.8567 21.121 18.4083 21.3342 18.9598 21.3342C19.5114 21.3342 20.0622 21.121 20.484 20.7014C21.3255 19.8624 21.3255 18.4984 20.484 17.6522L9.75666 6.93669ZM19.1449 20.3399C18.6927 20.3399 18.3254 19.9711 18.3254 19.5162C18.3254 19.0607 18.6927 18.6938 19.1449 18.6938C19.6012 18.6938 19.9699 19.0607 19.9699 19.5162C19.9707 19.9711 19.602 20.3399 19.1449 20.3399Z" fill="white"/>
</svg>
