<svg width="29" height="21" viewBox="0 0 29 21" fill="none" xmlns="http://www.w3.org/2000/svg">
<path fill-rule="evenodd" clip-rule="evenodd" d="M2.41164 4.99902H21.5899C22.0195 4.99902 22.407 5.164 22.6945 5.43264L12.0008 14.5988L1.30934 5.43549C1.59753 5.16543 1.985 4.99902 2.41164 4.99902ZM1.30614 20.5645L9.2297 13.7731L12.0008 16.199L14.7725 13.7731L22.6913 20.5645C22.4039 20.8333 22.0164 20.9988 21.5899 20.9988H2.41164C1.98285 20.9988 1.59454 20.8333 1.30614 20.5645ZM0.800781 19.6958L8.53355 13.1255L0.800781 6.40371V19.6958ZM23.2007 6.39894V19.6958L15.468 13.1255L23.2007 6.39894Z" fill="#AAAAAA"/>
<path d="M27.9998 5.99917C27.9998 3.23786 25.7612 0.999228 22.9998 0.999228C20.2383 0.999228 17.9998 3.2379 17.9998 5.99917C17.9998 8.76058 20.2383 10.9993 22.9998 10.9993C25.7612 10.9993 27.9998 8.76062 27.9998 5.99917Z" fill="#7F63F4" stroke="#F0F0F0" stroke-width="2"/>
</svg>
