<svg width="17" height="20" viewBox="0 0 17 20" fill="none" xmlns="http://www.w3.org/2000/svg">
<path fill-rule="evenodd" clip-rule="evenodd" d="M8.38265 5.91268H7.30519V6.95605H8.38265V5.91268ZM12.6928 5.91268H11.6153V6.95605H12.6928V5.91268ZM8.49893 0C3.80948 0 -0.00585938 3.80335 -0.00585938 8.4778C-0.00585938 12.9332 3.45985 16.597 7.84468 16.9312V19.3468C7.84468 19.5569 7.9456 19.7533 8.11635 19.8756C8.28755 19.9988 8.50647 20.0316 8.70584 19.9656C14.438 18.0604 17.0038 12.8233 17.0038 8.4778C17.0038 3.80335 13.1885 0 8.49893 0ZM7.84468 9.84559C7.84468 10.9941 7.20449 12.0259 6.17463 12.5393C5.84858 12.701 5.45685 12.5667 5.29675 12.2477C5.13551 11.9255 5.26665 11.5335 5.58949 11.3727C6.12656 11.1051 6.47298 10.5873 6.5255 9.99955H4.57361C4.21243 9.99955 3.91933 9.70745 3.91933 9.34729V6.739C3.91933 6.37887 4.21243 6.08677 4.57361 6.08677H7.19053C7.55158 6.08677 7.84468 6.37887 7.84468 6.739C7.84468 7.88704 7.84468 8.64193 7.84468 9.84559ZM13.0785 9.84559C13.0785 10.9941 12.4383 12.0259 11.4085 12.5393C11.0823 12.701 10.6907 12.5667 10.5306 12.2477C10.3691 11.9255 10.5003 11.5335 10.8231 11.3727C11.3604 11.1051 11.7067 10.5873 11.7593 9.99955H9.80734C9.44616 9.99955 9.15308 9.70745 9.15308 9.34729V6.739C9.15308 6.37887 9.44616 6.08677 9.80734 6.08677H12.4243C12.7854 6.08677 13.0785 6.37887 13.0785 6.739C13.0785 7.88704 13.0785 8.64193 13.0785 9.84559Z" fill="#AAAAAA"/>
</svg>
