<svg width="22" height="16" viewBox="0 0 22 16" fill="none" xmlns="http://www.w3.org/2000/svg">
<path fill-rule="evenodd" clip-rule="evenodd" d="M1.00049 1.99989H21.0005C21.5184 1.99989 21.9852 1.4612 21.9852 0.943412C21.9852 0.42611 21.5614 0.00292969 21.0436 0.00292969H0.957121C0.439393 0.00292969 0.015625 0.42611 0.015625 0.943412C0.015625 1.4612 0.482761 1.99989 1.00049 1.99989ZM1.00049 8.99987H21.0005C21.5184 8.99987 21.9852 8.51695 21.9852 7.99965C21.9852 7.48234 21.5184 6.99989 21.0005 6.99989H1.00049C0.482761 6.99989 0.015625 7.48234 0.015625 7.99965C0.015625 8.51695 0.482761 8.99987 1.00049 8.99987ZM21.0436 15.9965H0.957121C0.439393 15.9965 0.015625 15.573 0.015625 15.0554C0.015625 14.5383 0.482761 14 1.00049 14H21.0005C21.5184 14 21.9852 14.5383 21.9852 15.0554C21.9852 15.573 21.5614 15.9965 21.0436 15.9965Z" fill="#242E3A"/>
</svg>
