<svg width="16" height="16" viewBox="0 0 16 16" fill="none" xmlns="http://www.w3.org/2000/svg">
<path fill-rule="evenodd" clip-rule="evenodd" d="M11.9981 1.9999V0.000228047L-0.00195312 0V13.5085C-0.00195312 14.8765 1.1111 15.9898 2.47924 15.9898H13.5066C14.8747 15.9898 15.9879 14.8765 15.9879 13.5085L15.9982 1.9999H11.9981ZM9.99813 12.9999H1.99814V11.0002H9.99813V12.0001V12.9999ZM9.99813 9.00003H1.99814V7.00013H9.99813V8.00008V9.00003ZM9.99813 4.00003V5H1.99814V4.00003V1.9999H9.99813V4.00003ZM13.9981 14C13.9981 14.456 13.9626 14.3358 13.5066 14.3358C13.0505 14.3358 11.9981 14.456 11.9981 14V4.00003H13.9981V14Z" fill="#AAAAAA"/>
</svg>
