<svg width="16" height="11" viewBox="0 0 16 11" fill="none" xmlns="http://www.w3.org/2000/svg">
<path fill-rule="evenodd" clip-rule="evenodd" d="M10.3183 0.664062C15.2646 1.55528 15.911 2.96309 15.9893 7.9034C15.9944 8.21945 15.997 8.27418 15.9983 8.24614C15.9982 8.32978 15.998 8.45276 15.998 8.62978C15.998 8.62978 14.8203 10.9998 7.9993 10.9998C1.17818 10.9998 0.000580072 8.62978 0.000580072 8.62978C0.000580072 8.35419 0.000240088 8.19617 0 8.11071C0.00126004 8.15638 0.00469995 8.13581 0.01214 7.74289C0.1022 2.93233 0.78792 1.54534 5.68016 0.664062C5.68016 0.664062 6.37654 1.54985 7.9993 1.54985C9.62208 1.54985 10.3183 0.664062 10.3183 0.664062Z" fill="#AAAAAA"/>
</svg>
