<svg width="7" height="8" viewBox="0 0 7 8" fill="none" xmlns="http://www.w3.org/2000/svg">
<path fill-rule="evenodd" clip-rule="evenodd" d="M6.7427 7.99324H5.24662C5.10884 7.99324 4.99736 7.83656 4.99736 7.64303V1.33675C4.99736 1.143 5.10884 0.986328 5.24662 0.986328H6.7427C6.8805 0.986328 6.99196 1.143 6.99196 1.33675V7.64303C6.99196 7.83656 6.8805 7.99324 6.7427 7.99324ZM1.24118 7.99301H2.75856C2.8983 7.99301 3.01148 7.82548 3.01148 7.61816V2.37196C3.01148 2.16489 2.8983 1.99713 2.75856 1.99713H1.24118C1.10146 1.99713 0.988281 2.16489 0.988281 2.37196V7.61816C0.988281 7.82548 1.10146 7.99301 1.24118 7.99301Z" fill="#AAAAAA"/>
</svg>
