<svg width="386" height="113" viewBox="0 0 386 113" fill="none" xmlns="http://www.w3.org/2000/svg">
<g filter="url(#filter0_d_3173_4052)">
<mask id="path-1-inside-1_3173_4052" fill="white">
<path fill-rule="evenodd" clip-rule="evenodd" d="M9.7365 97.4867C9.7365 97.4867 27.5801 102.006 40.577 83.1579C40.577 83.1579 57.3191 54.7193 78.0265 86.4643C78.0265 86.4643 97.9625 104.872 113.273 71.0322C113.273 71.0322 117.128 16.5822 136.403 31.3523C136.403 31.3523 148.629 65.5221 161.736 55.6015C161.736 55.6015 172.2 45.1303 191.476 56.7038C191.476 56.7038 203.702 69.7104 219.012 48.9881C219.012 48.9881 230.577 12.6138 261.968 37.9654C261.968 37.9654 285.979 73.4582 307.128 57.8059C307.128 57.8059 317.812 44.5794 334.663 51.1928C334.663 51.1928 349.864 53.507 374.316 6.00031"/>
</mask>
<path d="M40.577 83.1579L43.0467 84.8609L43.1077 84.7725L43.1623 84.6799L40.577 83.1579ZM78.0265 86.4643L75.5138 88.1034L75.7175 88.4156L75.9913 88.6685L78.0265 86.4643ZM113.273 71.0322L116.006 72.2688L116.227 71.7796L116.265 71.244L113.273 71.0322ZM136.403 31.3523L139.228 30.3417L138.93 29.509L138.228 28.971L136.403 31.3523ZM161.736 55.6015L163.547 57.9935L163.712 57.8686L163.858 57.7221L161.736 55.6015ZM191.476 56.7038L193.662 54.6491L193.377 54.346L193.02 54.1318L191.476 56.7038ZM219.012 48.9881L221.425 50.7708L221.72 50.3709L221.871 49.8971L219.012 48.9881ZM261.968 37.9654L264.453 36.2844L264.202 35.9131L263.853 35.6314L261.968 37.9654ZM307.128 57.8059L308.912 60.2173L309.22 59.9892L309.461 59.691L307.128 57.8059ZM334.663 51.1928L333.568 53.9855L333.88 54.1081L334.212 54.1587L334.663 51.1928ZM9.7365 97.4867C8.99989 100.395 9.00161 100.395 9.00341 100.396C9.0041 100.396 9.00597 100.396 9.00735 100.397C9.01011 100.397 9.01316 100.398 9.01648 100.399C9.02312 100.401 9.03087 100.403 9.03972 100.405C9.05741 100.409 9.07951 100.414 9.1059 100.42C9.15869 100.433 9.22873 100.449 9.31533 100.467C9.48848 100.504 9.72811 100.551 10.0286 100.602C10.629 100.704 11.4753 100.819 12.5215 100.891C14.6104 101.035 17.5215 101.007 20.8755 100.331C27.6528 98.9658 36.0674 94.9826 43.0467 84.8609L38.1072 81.4549C32.0897 90.1816 25.0841 93.3628 19.6904 94.4495C16.9588 94.9999 14.5967 95.02 12.9338 94.9054C12.1041 94.8483 11.4548 94.7581 11.0286 94.686C10.8158 94.65 10.6594 94.6187 10.5648 94.5986C10.5175 94.5885 10.4858 94.5813 10.4703 94.5776C10.4625 94.5758 10.4588 94.5749 10.4592 94.575C10.4595 94.5751 10.4607 94.5754 10.463 94.576C10.4642 94.5763 10.4656 94.5766 10.4673 94.577C10.4681 94.5772 10.4696 94.5776 10.47 94.5777C10.4715 94.5781 10.4731 94.5785 9.7365 97.4867ZM40.577 83.1579C43.1623 84.6799 43.1615 84.6811 43.1609 84.6822C43.1608 84.6824 43.1602 84.6834 43.1599 84.6838C43.1594 84.6847 43.1591 84.6851 43.1591 84.6852C43.1591 84.6853 43.16 84.6837 43.1619 84.6805C43.1657 84.6741 43.1735 84.6613 43.1851 84.6423C43.2083 84.6043 43.247 84.5418 43.3007 84.4575C43.4082 84.2886 43.5753 84.0332 43.7989 83.7121C44.2472 83.0681 44.9155 82.1703 45.7772 81.1825C47.5286 79.1748 49.9437 76.9523 52.7986 75.6283C55.5661 74.3449 58.7327 73.8995 62.322 75.3395C66.0201 76.8232 70.5227 80.4518 75.5138 88.1034L80.5392 84.8253C75.1766 76.6043 69.8211 71.8833 64.5561 69.771C59.1824 67.615 54.2808 68.3271 50.2743 70.1852C46.3553 72.0027 43.2906 74.9058 41.2558 77.2383C40.2244 78.4206 39.4229 79.4965 38.8748 80.2838C38.6001 80.6783 38.3873 81.0028 38.2394 81.2351C38.1655 81.3513 38.1076 81.4446 38.0662 81.5123C38.0455 81.5461 38.0289 81.5736 38.0165 81.5943C38.0103 81.6047 38.0051 81.6133 38.001 81.6203C37.9989 81.6238 37.9971 81.6268 37.9956 81.6294C37.9948 81.6307 37.9938 81.6324 37.9934 81.633C37.9925 81.6345 37.9917 81.6359 40.577 83.1579ZM78.0265 86.4643C75.9913 88.6685 75.9928 88.6699 75.9944 88.6713C75.995 88.6719 75.9966 88.6734 75.9979 88.6745C76.0004 88.6768 76.0032 88.6794 76.0063 88.6822C76.0125 88.6879 76.02 88.6947 76.0288 88.7026C76.0462 88.7184 76.0686 88.7385 76.0959 88.7627C76.1505 88.811 76.2247 88.8756 76.3177 88.9541C76.5035 89.1112 76.7654 89.3249 77.0972 89.5773C77.7592 90.0806 78.7095 90.745 79.8995 91.4206C82.2587 92.76 85.6854 94.2147 89.7467 94.4337C93.8799 94.6565 98.5088 93.5866 103.113 90.1147C107.66 86.6856 112.046 81.02 116.006 72.2688L110.539 69.7955C106.844 77.964 102.997 82.6873 99.5002 85.3242C96.0601 87.9183 92.8344 88.5914 90.0698 88.4424C87.2333 88.2895 84.7192 87.2574 82.8619 86.2029C81.9436 85.6815 81.2169 85.1722 80.7288 84.8011C80.4856 84.6162 80.3042 84.4675 80.1905 84.3715C80.1337 84.3235 80.0941 84.2888 80.0723 84.2695C80.0614 84.2599 80.055 84.2541 80.0532 84.2525C80.0523 84.2516 80.0525 84.2519 80.0539 84.2531C80.0546 84.2538 80.0556 84.2547 80.0569 84.2558C80.0575 84.2564 80.0587 84.2575 80.059 84.2578C80.0603 84.259 80.0616 84.2602 78.0265 86.4643ZM113.273 71.0322C116.265 71.244 116.265 71.2444 116.265 71.2445C116.265 71.2443 116.265 71.2442 116.265 71.2437C116.265 71.2428 116.265 71.2411 116.265 71.2385C116.266 71.2334 116.266 71.225 116.267 71.2135C116.269 71.1904 116.272 71.1545 116.275 71.1063C116.283 71.0099 116.294 70.8644 116.31 70.6735C116.342 70.2916 116.392 69.7284 116.462 69.0139C116.602 67.5843 116.823 65.5529 117.149 63.1593C117.802 58.3536 118.863 52.1675 120.494 46.4802C122.165 40.6512 124.287 35.8986 126.763 33.4579C127.925 32.3125 128.985 31.8533 129.991 31.8144C131.026 31.7745 132.524 32.1594 134.579 33.7336L138.228 28.971C135.464 26.8527 132.625 25.7082 129.76 25.8189C126.865 25.9307 124.461 27.3021 122.552 29.1844C118.884 32.7989 116.428 38.8894 114.726 44.8267C112.983 50.9056 111.875 57.4088 111.204 62.351C110.866 64.8313 110.636 66.9383 110.49 68.4288C110.417 69.1743 110.365 69.7665 110.331 70.175C110.314 70.3793 110.301 70.5377 110.293 70.6465C110.289 70.7009 110.286 70.7429 110.284 70.772C110.283 70.7866 110.282 70.7979 110.281 70.806C110.281 70.81 110.281 70.8132 110.28 70.8156C110.28 70.8168 110.28 70.818 110.28 70.8186C110.28 70.8195 110.28 70.8203 113.273 71.0322ZM136.403 31.3523C133.579 32.363 133.579 32.3637 133.579 32.3646C133.579 32.365 133.58 32.366 133.58 32.3669C133.581 32.3688 133.582 32.3711 133.583 32.374C133.585 32.3797 133.588 32.3876 133.591 32.3974C133.598 32.4171 133.608 32.4448 133.621 32.4804C133.647 32.5515 133.685 32.6539 133.734 32.785C133.832 33.0474 133.976 33.4252 134.162 33.8993C134.535 34.847 135.08 36.1827 135.776 37.7518C137.16 40.8751 139.169 44.9893 141.631 48.8195C144.048 52.5784 147.107 56.3938 150.696 58.5647C152.534 59.6768 154.63 60.4294 156.913 60.4077C159.229 60.3857 161.466 59.5687 163.547 57.9935L159.926 53.2094C158.73 54.1144 157.718 54.3998 156.856 54.408C155.962 54.4165 154.952 54.1271 153.801 53.4309C151.411 51.9852 148.956 49.1182 146.678 45.5747C144.446 42.1026 142.579 38.2944 141.261 35.3208C140.606 33.8415 140.093 32.5853 139.746 31.703C139.573 31.2622 139.441 30.9156 139.354 30.6822C139.31 30.5655 139.277 30.4772 139.256 30.4197C139.246 30.3909 139.238 30.3698 139.233 30.3567C139.231 30.3501 139.229 30.3456 139.228 30.3431C139.228 30.3418 139.228 30.3411 139.228 30.3408C139.228 30.3407 139.228 30.3409 139.228 30.3409C139.228 30.3412 139.228 30.3417 136.403 31.3523ZM161.736 55.6015C163.858 57.7221 163.857 57.7236 163.855 57.725C163.855 57.7254 163.854 57.7269 163.853 57.7277C163.851 57.7294 163.849 57.731 163.848 57.7324C163.845 57.7353 163.843 57.7375 163.841 57.7391C163.838 57.7424 163.837 57.7433 163.838 57.7419C163.841 57.7392 163.854 57.7275 163.875 57.7077C163.919 57.668 164 57.5964 164.118 57.5002C164.355 57.3075 164.737 57.0182 165.262 56.6907C166.311 56.0353 167.917 55.2333 170.059 54.7343C174.254 53.7566 180.896 53.8509 189.931 59.2758L193.02 54.1318C182.78 47.9831 174.552 47.5263 168.697 48.8909C165.813 49.563 163.598 50.6554 162.083 51.6017C161.326 52.075 160.74 52.5134 160.329 52.8481C160.123 53.0156 159.961 53.1576 159.842 53.2658C159.782 53.3198 159.733 53.3655 159.696 53.4017C159.677 53.4198 159.66 53.4355 159.647 53.4487C159.64 53.4554 159.634 53.4614 159.629 53.4667C159.626 53.4694 159.623 53.4719 159.621 53.4743C159.62 53.4755 159.618 53.4771 159.617 53.4777C159.616 53.4793 159.614 53.4809 161.736 55.6015ZM191.476 56.7038C189.29 58.7585 189.291 58.7601 189.293 58.7617C189.293 58.7623 189.295 58.764 189.296 58.7652C189.298 58.7676 189.301 58.7702 189.304 58.7731C189.309 58.7787 189.315 58.7852 189.322 58.7924C189.336 58.8069 189.353 58.8244 189.373 58.8449C189.413 58.8858 189.466 58.9385 189.531 59.0014C189.661 59.1271 189.841 59.2943 190.068 59.4907C190.52 59.8825 191.169 60.3969 191.997 60.9317C193.642 61.9952 196.066 63.186 199.107 63.5906C205.477 64.4383 213.335 61.7198 221.425 50.7708L216.599 47.2054C209.378 56.9788 203.468 58.1181 199.898 57.643C197.968 57.3863 196.379 56.6205 195.254 55.8929C194.696 55.5322 194.27 55.1923 193.994 54.9537C193.857 54.8349 193.759 54.7429 193.702 54.6882C193.674 54.6609 193.656 54.6431 193.649 54.6361C193.646 54.6326 193.645 54.6318 193.647 54.6339C193.648 54.6349 193.65 54.6367 193.652 54.6393C193.653 54.6405 193.655 54.642 193.656 54.6436C193.657 54.6444 193.658 54.6458 193.659 54.6462C193.66 54.6476 193.662 54.6491 191.476 56.7038ZM219.012 48.9881C221.871 49.8971 221.87 49.8984 221.87 49.8995C221.87 49.8996 221.87 49.9006 221.869 49.901C221.869 49.9017 221.869 49.9019 221.869 49.9016C221.869 49.9009 221.87 49.8981 221.872 49.8932C221.875 49.8834 221.881 49.8653 221.89 49.8391C221.907 49.7868 221.936 49.7026 221.976 49.5893C222.057 49.3628 222.183 49.021 222.356 48.5876C222.703 47.719 223.236 46.4916 223.968 45.09C225.449 42.2566 227.667 38.8588 230.686 36.234C233.664 33.6457 237.346 31.8621 241.929 31.9913C246.563 32.1219 252.558 34.2217 260.083 40.2993L263.853 35.6314C255.683 29.0332 248.46 26.173 242.098 25.9937C235.682 25.8129 230.588 28.3695 226.75 31.7058C222.954 35.0057 220.319 39.1169 218.65 42.3115C217.808 43.9238 217.192 45.3402 216.784 46.3617C216.58 46.8734 216.426 47.2884 216.322 47.5823C216.27 47.7293 216.23 47.8462 216.202 47.93C216.188 47.9718 216.177 48.0055 216.168 48.0304C216.164 48.0429 216.161 48.0533 216.158 48.0614C216.157 48.0655 216.156 48.069 216.155 48.0719C216.155 48.0734 216.154 48.0752 216.154 48.0759C216.153 48.0776 216.153 48.0791 219.012 48.9881ZM261.968 37.9654C259.483 39.6464 259.484 39.6473 259.485 39.6483C259.485 39.6488 259.486 39.6499 259.487 39.651C259.488 39.6531 259.49 39.6557 259.492 39.6588C259.496 39.6651 259.502 39.6736 259.509 39.6841C259.524 39.7052 259.544 39.7347 259.57 39.7722C259.622 39.8473 259.696 39.9547 259.793 40.0916C259.987 40.3655 260.269 40.7582 260.633 41.2482C261.36 42.2277 262.417 43.5998 263.75 45.1926C266.408 48.3661 270.212 52.4732 274.743 56.0979C279.248 59.7014 284.656 62.9782 290.517 64.2418C296.506 65.5328 302.869 64.6898 308.912 60.2173L305.343 55.3945C300.812 58.7481 296.243 59.3382 291.782 58.3765C287.193 57.3874 282.633 54.7258 278.491 51.4126C274.376 48.1206 270.856 44.3328 268.351 41.3406C267.103 39.8505 266.118 38.572 265.45 37.6715C265.116 37.2217 264.861 36.867 264.693 36.6287C264.609 36.5095 264.546 36.4195 264.506 36.3612C264.486 36.3321 264.471 36.3109 264.462 36.298C264.458 36.2915 264.455 36.2871 264.453 36.2849C264.453 36.2837 264.452 36.2831 264.452 36.283C264.452 36.283 264.452 36.2833 264.452 36.2833C264.453 36.2838 264.453 36.2844 261.968 37.9654ZM307.128 57.8059C309.461 59.691 309.46 59.6921 309.459 59.6932C309.459 59.6935 309.458 59.6945 309.458 59.6951C309.457 59.6962 309.456 59.6972 309.456 59.6979C309.454 59.6994 309.454 59.7002 309.454 59.7002C309.454 59.7001 309.456 59.6971 309.461 59.6911C309.471 59.6791 309.491 59.6554 309.521 59.6212C309.58 59.5526 309.678 59.4416 309.814 59.296C310.086 59.0043 310.506 58.5766 311.065 58.0741C312.189 57.0646 313.844 55.7792 315.958 54.682C320.127 52.5181 326.101 51.0554 333.568 53.9855L335.759 48.4002C326.374 44.7168 318.58 46.5607 313.194 49.3567C310.53 50.7394 308.462 52.3473 307.055 53.6111C306.349 54.2452 305.803 54.7992 305.425 55.205C305.236 55.4082 305.088 55.5749 304.982 55.6968C304.93 55.7578 304.887 55.8076 304.856 55.8453C304.84 55.8641 304.827 55.8799 304.817 55.8925C304.812 55.8988 304.807 55.9044 304.803 55.9091C304.801 55.9114 304.8 55.9136 304.798 55.9155C304.797 55.9165 304.796 55.9178 304.796 55.9183C304.795 55.9196 304.794 55.9208 307.128 57.8059ZM334.663 51.1928C334.212 54.1587 334.217 54.1594 334.222 54.1601C334.223 54.1604 334.228 54.1611 334.232 54.1616C334.239 54.1626 334.246 54.1636 334.253 54.1646C334.268 54.1667 334.283 54.1688 334.3 54.1709C334.333 54.1751 334.37 54.1793 334.411 54.1834C334.494 54.1915 334.591 54.199 334.703 54.2041C334.929 54.2144 335.213 54.2152 335.555 54.1934C336.24 54.1498 337.146 54.016 338.258 53.6929C340.484 53.0457 343.485 51.6539 347.168 48.7751C354.499 43.0439 364.654 31.326 376.983 7.37324L371.648 4.62739C359.525 28.1813 349.854 39.0597 343.473 44.048C340.299 46.5291 337.971 47.5279 336.583 47.9314C335.888 48.1336 335.415 48.1902 335.174 48.2056C335.052 48.2133 334.986 48.2108 334.977 48.2104C334.972 48.2101 334.981 48.2104 335.004 48.2127C335.016 48.2138 335.031 48.2155 335.049 48.2178C335.058 48.219 335.068 48.2203 335.079 48.2218C335.085 48.2226 335.091 48.2234 335.097 48.2243C335.1 48.2247 335.104 48.2254 335.106 48.2256C335.11 48.2263 335.115 48.227 334.663 51.1928Z" fill="white" mask="url(#path-1-inside-1_3173_4052)"/>
</g>
<defs>
<filter id="filter0_d_3173_4052" x="0.536328" y="0.9" width="384.58" height="111.962" filterUnits="userSpaceOnUse" color-interpolation-filters="sRGB">
<feFlood flood-opacity="0" result="BackgroundImageFix"/>
<feColorMatrix in="SourceAlpha" type="matrix" values="0 0 0 0 0 0 0 0 0 0 0 0 0 0 0 0 0 0 127 0" result="hardAlpha"/>
<feOffset dx="0.8" dy="4.9"/>
<feGaussianBlur stdDeviation="5"/>
<feColorMatrix type="matrix" values="0 0 0 0 0.788235 0 0 0 0 0.796078 0 0 0 0 0.815686 0 0 0 1 0"/>
<feBlend mode="normal" in2="BackgroundImageFix" result="effect1_dropShadow_3173_4052"/>
<feBlend mode="normal" in="SourceGraphic" in2="effect1_dropShadow_3173_4052" result="shape"/>
</filter>
</defs>
</svg>
