<svg width="16" height="15" viewBox="0 0 16 15" fill="none" xmlns="http://www.w3.org/2000/svg">
<path fill-rule="evenodd" clip-rule="evenodd" d="M0 0V15H16V0H0ZM4.99991 14H0.999972V12.0001H4.99991V14ZM4.99991 10.9999H0.999972V9.00004H4.99991V10.9999ZM4.99991 8.00008H0.999972V6.00017H4.99991V8.00008ZM4.99991 5.00024H0.999972V3.0001H4.99991V5.00024ZM9.99995 14H5.9999V12.0001H9.99995V14ZM9.99995 10.9999H5.9999V9.00004H9.99995V10.9999ZM9.99995 8.00008H5.9999V6.00017H9.99995V8.00008ZM9.99995 5.00024H5.9999V3.0001H9.99995V5.00024ZM15 14H10.9999V12.0001H15V14ZM15 10.9999H10.9999V9.00004H15V10.9999ZM15 8.00008H10.9999V6.00017H15V8.00008ZM15 5.00024H10.9999V3.0001H15V5.00024Z" fill="#AAAAAA"/>
</svg>
