<svg width="16" height="19" viewBox="0 0 16 19" fill="none" xmlns="http://www.w3.org/2000/svg">
<path fill-rule="evenodd" clip-rule="evenodd" d="M14.7673 2.37497H11.0749C10.7105 1.34178 10.3117 0 8.61339 0C6.06857 0 5.28556 1.34178 4.92106 2.37497H1.22875C0.246624 2.37497 -0.00195312 3.76583 -0.00195312 4.74995V17.2185C-0.00195312 18.2026 0.79352 18.9998 1.7759 18.9998H14.2203C15.2024 18.9998 15.998 18.2026 15.998 17.2185V4.74995C15.9979 3.76583 15.7495 2.37497 14.7673 2.37497ZM7.99803 2.96866C8.48681 2.96866 8.8868 3.36499 8.8868 3.8592C8.8868 4.35362 8.48681 4.74995 7.99803 4.74995C7.50915 4.74995 7.10918 4.35362 7.10918 3.8592C7.10918 3.36499 7.50915 2.96866 7.99803 2.96866ZM9.99813 15.9999H2.99811V14H9.99813V15.9999ZM12.9981 11.9999H2.99811V9.99977H12.9981V11.9999ZM12.9981 8.00008H2.99811V5.99995H12.9981V8.00008Z" fill="#AAAAAA"/>
</svg>
