<svg width="22" height="22" viewBox="0 0 22 22" fill="none" xmlns="http://www.w3.org/2000/svg">
<path fill-rule="evenodd" clip-rule="evenodd" d="M19.7044 6.31871L19.032 5.63617H20.5571V6.31871H19.7044ZM20.3765 7.00081L20.5308 7.15749C20.5397 7.16642 20.5485 7.17543 20.5571 7.18452V7.00081H20.3765ZM20.8985 4.95409H18.36L14.8214 1.36235L14.8176 1.35851L14.8139 1.35467C14.1479 0.689774 13.0653 0.691118 12.402 1.35421L8.74962 4.95388H2.97854C1.75519 4.95388 0.759886 5.94863 0.759886 7.1715C0.759886 7.22893 0.762081 7.28585 0.766393 7.34219H0.759766V19.1122C0.759766 20.335 1.75519 21.3296 2.97845 21.3296H19.5331C19.7218 21.3296 19.8745 21.1772 19.8745 20.9886V17.5771H19.1919V20.6475H2.97854C2.1317 20.6475 1.44252 19.9586 1.44252 19.1122V19.0816C1.53593 19.1619 1.63611 19.2346 1.74259 19.2991L2.0969 18.7161C1.9337 18.6173 1.79169 18.4902 1.67462 18.3399L1.44252 18.5204V17.8605L1.46769 17.8558C1.45099 17.7654 1.44252 17.6716 1.44288 17.5782L1.44252 17.5782V10.5524C1.53593 10.6328 1.63611 10.7056 1.74259 10.7703L2.0969 10.187C1.9337 10.0879 1.79169 9.96155 1.67462 9.81121L1.44252 9.99151V9.33205L1.46769 9.3274C1.45099 9.23629 1.44252 9.14269 1.44288 9.04909L1.44252 9.04909V8.77009C1.84146 9.15312 2.38298 9.38889 2.97854 9.38889H19.1919V12.1186H14.4131C12.9076 12.1186 11.6825 13.3428 11.6825 14.8476C11.6825 16.3526 12.9076 17.5771 14.4131 17.5771H19.1917V16.8948H14.4131C13.2837 16.8948 12.3652 15.9766 12.3652 14.8476C12.3652 13.7188 13.2837 12.8007 14.4131 12.8007H20.5571V12.1186H20.8985C21.0872 12.1186 21.2398 12.271 21.2398 12.4595V5.29525C21.2398 5.10671 21.0872 4.95409 20.8985 4.95409ZM19.8745 12.1186V10.2129L20.5294 9.56116L20.5479 9.54234L20.5571 9.5327V12.1186H19.8745ZM19.8745 12.1186H19.1919V12.4593H19.8745V12.1186ZM4.94177 8.70681L6.67229 7.00125H3.31982C2.59436 7.00125 1.98463 7.50677 1.82472 8.18382C2.10646 8.50424 2.51932 8.70681 2.97854 8.70681H4.94177ZM1.44252 7.1715C1.44252 7.22884 1.44568 7.28546 1.45184 7.34119C1.84678 6.72688 2.5366 6.31917 3.31982 6.31917V6.31895H7.36457L8.05734 5.63617H2.97854C2.1317 5.63617 1.44252 6.32505 1.44252 7.1715ZM12.883 1.83849L5.9138 8.70681H12.9052L13.8293 7.78305L14.312 8.26573L13.8708 8.70681H15.6967C15.8554 7.92931 16.545 7.34241 17.369 7.34241C18.1932 7.34241 18.8828 7.92931 19.0415 8.70681H19.5331C19.7219 8.70681 19.8745 8.85964 19.8745 9.04773V9.25086L20.0468 9.07938C20.4411 8.68261 20.4411 8.03536 20.0455 7.63744L14.3302 1.83669L14.3287 1.835L14.3264 1.83282C13.9271 1.43833 13.281 1.44126 12.883 1.83849ZM18.3345 8.70681C18.1935 8.30983 17.814 8.02473 17.369 8.02473C16.9242 8.02473 16.5447 8.30983 16.4037 8.70681H18.3345ZM14.4131 13.483C13.6602 13.483 13.0479 14.095 13.0479 14.8476C13.0479 15.6002 13.6601 16.2124 14.4131 16.2124C15.1662 16.2124 15.7785 15.6002 15.7785 14.8476C15.7785 14.095 15.1662 13.483 14.4131 13.483ZM14.4131 15.5299C14.0366 15.5299 13.7305 15.224 13.7305 14.8476C13.7305 14.4714 14.0366 14.1653 14.4131 14.1653C14.7897 14.1653 15.0958 14.4714 15.0958 14.8476C15.0958 15.224 14.7897 15.5299 14.4131 15.5299ZM10.3008 6.42045L13.3728 3.34984L13.8555 3.83253L10.7835 6.90292L10.3008 6.42045ZM14.3969 4.37195L12.6905 6.07773L13.1732 6.55996L14.8796 4.85461L14.3969 4.37195ZM5.33306 10.4126H6.02589V11.0947H5.33306V10.4126ZM8.79787 10.4126H8.10494V11.0947H8.79787V10.4126ZM6.71916 10.4126H7.41211V11.0947H6.71916V10.4126ZM3.94752 10.4126H4.64047V11.0947H3.94752V10.4126ZM2.50133 11.0589L2.62517 10.3879C2.68913 10.3996 2.75385 10.4036 2.81903 10.4076H2.81905L2.81919 10.4076H2.8192H2.81922H2.81923H2.81923H2.81924H2.81925H2.81926H2.81927H2.81928H2.81929H2.8193H2.81932H2.81933H2.81934H2.81935H2.81936H2.81937H2.81938H2.81939H2.81939H2.8194H2.81941H2.81942H2.81943H2.81944C2.84882 10.4094 2.87829 10.4112 2.90784 10.4137L3.25459 10.4126V11.0947L2.90851 11.0958C2.90748 11.0962 2.90611 11.0962 2.90508 11.0962C2.77027 11.0962 2.63443 11.0836 2.50133 11.0589ZM12.2625 10.4126H12.9553V11.0947H12.2625V10.4126ZM10.1838 10.4126H9.49082V11.0947H10.1838V10.4126ZM16.4199 10.4126H17.1125V11.0947H16.4199V10.4126ZM18.4986 10.4126H17.8056V11.0947H18.4986V10.4126ZM15.034 10.4126H15.7269V11.0947H15.034V10.4126ZM14.3408 10.4126H13.6482V11.0947H14.3408V10.4126ZM10.8766 10.4126H11.5692V11.0947H10.8766V10.4126ZM10.1838 18.9415H9.49082V19.624H10.1838V18.9415ZM8.10494 18.9415H8.79787V19.624H8.10494V18.9415ZM7.41211 18.9415H6.71916V19.624H7.41211V18.9415ZM2.50202 19.5883L2.62517 18.9173C2.71843 18.9342 2.8133 18.9424 2.90784 18.9426L3.25459 18.9415V19.624L2.90784 19.6251C2.77233 19.6251 2.6358 19.6127 2.50202 19.5883ZM3.94752 18.9415H4.64047V19.624H3.94752V18.9415ZM6.02623 18.9415H5.33328V19.624H6.02623V18.9415ZM16.4199 18.9415H17.1125V19.624H16.4199V18.9415ZM15.7269 18.9415H15.034V19.624H15.7269V18.9415ZM17.8056 18.9415H18.4986V19.624H17.8056V18.9415ZM11.5695 18.9415H10.8766V19.624H11.5695V18.9415ZM12.2625 18.9415H12.9553V19.624H12.2625V18.9415ZM14.3408 18.9415H13.6482V19.624H14.3408V18.9415ZM14.5134 7.10051L15.8787 5.73565L16.3614 6.21834L14.9961 7.58296L14.5134 7.10051Z" fill="#6A707E"/>
</svg>
